<svg width="80" height="80" viewBox="0 0 80 80" fill="none" xmlns="http://www.w3.org/2000/svg">
<path d="M65 27.5001H50V15.0001C50.2519 12.5999 49.54 10.198 48.021 8.32261C46.5019 6.44726 44.3002 5.25213 41.9 5.0001C41.2689 4.9251 40.6311 4.9251 40 5.0001H36.075C35.2393 5.023 34.4349 5.32263 33.7879 5.852C33.1409 6.38136 32.6879 7.11052 32.5 7.9251V8.2251L30 24.0751L21.15 37.5001H5V72.5001H52.5C71.1 72.5001 75 61.6251 75 52.5001V37.5001C75.2519 35.0999 74.54 32.698 73.021 30.8226C71.5019 28.9473 69.3002 27.7521 66.9 27.5001C66.2689 27.4251 65.6311 27.4251 65 27.5001ZM20 67.5001H10V42.5001H20V67.5001ZM70 52.5001C70 62.7251 64.45 67.5001 52.5 67.5001H25V40.7501L35 25.9251L36.825 12.5001L37.175 10.0001H40C43.6 10.0001 45 11.4001 45 15.0001V32.5001H65C68.6 32.5001 70 33.9001 70 37.5001V52.5001Z" fill="black"/>
</svg>
