<svg width="120" height="26" viewBox="0 0 120 26" fill="none" xmlns="http://www.w3.org/2000/svg">
<path d="M0.804 21.556H4.544V4.528H0.804V0.083998H12.376C15.7493 0.083998 18.3307 0.685331 20.12 1.888C21.9387 3.06133 22.848 4.77733 22.848 7.036C22.848 8.32667 22.54 9.47067 21.924 10.468C21.3373 11.436 20.4867 12.2133 19.372 12.8C20.7213 13.2107 21.7627 13.944 22.496 15C23.2587 16.0267 23.64 17.3173 23.64 18.872C23.64 21.1307 22.892 22.8907 21.396 24.152C19.9 25.384 17.7147 26 14.84 26H0.804V21.556ZM14.356 11.04C15.3827 11.04 16.16 10.7613 16.688 10.204C17.2453 9.61733 17.524 8.81067 17.524 7.784C17.524 5.61333 15.9693 4.528 12.86 4.528H9.648V11.04H14.356ZM14.048 21.556C15.456 21.556 16.5267 21.2773 17.26 20.72C17.9933 20.1333 18.36 19.2973 18.36 18.212C18.36 17.1853 18.008 16.3933 17.304 15.836C16.6293 15.2787 15.632 15 14.312 15H9.648V21.556H14.048ZM26.93 0.083998H46.906L49.502 7.872L45.322 9.28L43.65 4.528H35.774V10.6H43.254V15H35.774V21.556H44.75L46.378 17.156L50.514 18.608L47.962 26H26.886V21.556H30.626L30.67 4.528H26.93V0.083998ZM53.7425 0.083998H73.7185L76.4025 8.136L72.2225 9.544L70.5065 4.528H62.5425V10.732H69.3185V15.176H62.4985V21.556H68.0865V26H53.6985V21.556H57.4825L57.5265 4.528H53.7425V0.083998ZM79.266 0.083998H92.73V4.528H88.55V21.556H92.73V26H79.222V21.556H83.49V4.528H79.266V0.083998ZM95.8395 0.083998H119.292V8.884H114.76V4.528H110.14L110.096 21.556H113.836V26H101.208V21.556H104.948L104.992 4.528H100.372V8.884H95.8395V0.083998Z" fill="#FF4301"/>
</svg>
