<svg width="85" height="80" viewBox="0 0 85 80" fill="none" xmlns="http://www.w3.org/2000/svg">
<path d="M42.7606 6.66675C23.4692 6.66675 7.77441 21.6201 7.77441 40.0001C7.77441 58.3801 23.4692 73.3334 42.7606 73.3334C62.052 73.3334 77.7469 58.3801 77.7469 40.0001C77.7469 21.6201 62.052 6.66675 42.7606 6.66675ZM42.7606 66.6668C27.3282 66.6668 14.7717 54.7034 14.7717 40.0001C14.7717 25.2967 27.3282 13.3334 42.7606 13.3334C58.1931 13.3334 70.7496 25.2967 70.7496 40.0001C70.7496 54.7034 58.1931 66.6668 42.7606 66.6668Z" fill="black"/>
<path d="M46.259 23.3333H39.2617V43.3333H60.2534V36.6666H46.259V23.3333Z" fill="black"/>
</svg>
