<svg width="124" height="29" viewBox="0 0 124 29" fill="none" xmlns="http://www.w3.org/2000/svg">
<path d="M0.776 25.688H5.336V4.04H0.776V0.727998H13.016C16.44 0.727998 19.048 1.368 20.84 2.648C22.664 3.896 23.576 5.72 23.576 8.12C23.576 9.432 23.224 10.664 22.52 11.816C21.816 12.936 20.872 13.8 19.688 14.408C21.096 14.92 22.248 15.784 23.144 17C24.04 18.184 24.488 19.608 24.488 21.272C24.488 23.608 23.688 25.48 22.088 26.888C20.52 28.296 18.168 29 15.032 29H0.776V25.688ZM15.176 13.256C16.552 13.256 17.608 12.856 18.344 12.056C19.112 11.224 19.496 10.088 19.496 8.648C19.496 5.576 17.512 4.04 13.544 4.04H9.176V13.256H15.176ZM14.84 25.64C16.664 25.64 18.04 25.24 18.968 24.44C19.928 23.608 20.408 22.376 20.408 20.744C20.408 19.272 19.944 18.136 19.016 17.336C18.12 16.536 16.824 16.136 15.128 16.136H9.176L9.128 25.64H14.84ZM27.4959 0.727998H48.8079L51.2559 8.12L48.1359 9.176L46.2159 4.04H35.9439V12.728H44.9199V16.04H35.9439L35.8959 25.688H47.1759L49.0959 20.552L52.2159 21.608L49.7679 29H27.4479V25.688H32.0559L32.1039 4.04H27.4959V0.727998ZM55.6678 0.727998H76.9318L79.3798 8.12L76.2598 9.176L74.3398 4.04H64.0678V13.016H71.9878V16.328H64.0198V25.688H69.8758V29H55.6198V25.688H60.2278L60.2758 4.04H55.6678V0.727998ZM82.0584 0.727998H95.0184V4.04H90.5544L90.4584 25.688H95.0184V29H82.0104V25.688H86.6664V4.04H82.0584V0.727998ZM98.5093 0.727998H123.229V8.6H119.581V4.04H112.813L112.717 25.688H117.277V29H104.317V25.688H108.877L108.925 4.04H102.157V8.6H98.5093V0.727998Z" fill="black"/>
</svg>
