<svg width="70" height="70" viewBox="0 0 70 70" fill="none" xmlns="http://www.w3.org/2000/svg">
<path d="M39.375 65.625H30.625C29.4647 65.625 28.3519 65.1641 27.5314 64.3436C26.7109 63.5231 26.25 62.4103 26.25 61.25V45.9375C25.0897 45.9375 23.9769 45.4766 23.1564 44.6561C22.3359 43.8356 21.875 42.7228 21.875 41.5625V28.4375C21.875 26.697 22.5664 25.0278 23.7971 23.7971C25.0278 22.5664 26.697 21.875 28.4375 21.875H41.5625C43.303 21.875 44.9722 22.5664 46.2029 23.7971C47.4336 25.0278 48.125 26.697 48.125 28.4375V41.5625C48.125 42.7228 47.6641 43.8356 46.8436 44.6561C46.0231 45.4766 44.9103 45.9375 43.75 45.9375V61.25C43.75 62.4103 43.2891 63.5231 42.4686 64.3436C41.6481 65.1641 40.5353 65.625 39.375 65.625ZM28.4375 26.25C28.1452 26.2307 27.8522 26.274 27.578 26.3771C27.3039 26.4802 27.0549 26.6407 26.8478 26.8478C26.6407 27.0549 26.4802 27.3039 26.3771 27.578C26.274 27.8522 26.2307 28.1452 26.25 28.4375V41.5625H30.625V61.25H39.375V41.5625H43.75V28.4375C43.7693 28.1452 43.726 27.8522 43.6229 27.578C43.5198 27.3039 43.3593 27.0549 43.1522 26.8478C42.9451 26.6407 42.6961 26.4802 42.422 26.3771C42.1478 26.274 41.8548 26.2307 41.5625 26.25H28.4375Z" fill="#333333"/>
<path d="M35 19.6875C33.2694 19.6875 31.5777 19.1743 30.1388 18.2129C28.6998 17.2514 27.5783 15.8848 26.9161 14.286C26.2538 12.6871 26.0805 10.9278 26.4181 9.23046C26.7558 7.53313 27.5891 5.97403 28.8128 4.75032C30.0365 3.52661 31.5956 2.69325 33.293 2.35563C34.9903 2.01801 36.7496 2.19129 38.3485 2.85356C39.9473 3.51582 41.3139 4.63733 42.2754 6.07626C43.2368 7.51519 43.75 9.20692 43.75 10.9375C43.75 13.2581 42.8281 15.4837 41.1872 17.1247C39.5462 18.7656 37.3206 19.6875 35 19.6875ZM35 6.5625C34.1347 6.5625 33.2889 6.81909 32.5694 7.29982C31.8499 7.78056 31.2892 8.46384 30.958 9.26326C30.6269 10.0627 30.5403 10.9424 30.7091 11.791C30.8779 12.6397 31.2946 13.4192 31.9064 14.0311C32.5183 14.643 33.2978 15.0596 34.1465 15.2284C34.9952 15.3973 35.8748 15.3106 36.6742 14.9795C37.4737 14.6483 38.157 14.0876 38.6377 13.3681C39.1184 12.6487 39.375 11.8028 39.375 10.9375C39.375 9.77718 38.9141 8.66438 38.0936 7.84391C37.2731 7.02344 36.1603 6.5625 35 6.5625Z" fill="#333333"/>
</svg>
