<svg width="80" height="80" viewBox="0 0 80 80" fill="none" xmlns="http://www.w3.org/2000/svg">
<path d="M40.0001 6.6665C21.6201 6.6665 6.66675 21.6198 6.66675 39.9998C6.66675 58.3798 21.6201 73.3332 40.0001 73.3332C58.3801 73.3332 73.3334 58.3798 73.3334 39.9998C73.3334 21.6198 58.3801 6.6665 40.0001 6.6665ZM40.0001 66.6665C25.2968 66.6665 13.3334 54.7032 13.3334 39.9998C13.3334 25.2965 25.2968 13.3332 40.0001 13.3332C54.7034 13.3332 66.6668 25.2965 66.6668 39.9998C66.6668 54.7032 54.7034 66.6665 40.0001 66.6665Z" fill="black"/>
<path d="M43.3334 23.3335H36.6667V43.3335H56.6667V36.6668H43.3334V23.3335Z" fill="black"/>
</svg>
