<svg width="80" height="80" viewBox="0 0 80 80" fill="none" xmlns="http://www.w3.org/2000/svg">
<path d="M28.8268 49.0366L39.9901 59.9999L51.1568 49.0366C51.8453 48.3744 52.393 47.5801 52.7672 46.7012C53.1413 45.8223 53.3342 44.8768 53.3342 43.9216C53.3342 42.9664 53.1413 42.0209 52.7672 41.142C52.393 40.2631 51.8453 39.4688 51.1568 38.8066C49.7688 37.4366 47.897 36.6685 45.9468 36.6685C43.9966 36.6685 42.1248 37.4366 40.7368 38.8066L39.9901 39.5366L39.2435 38.8066C37.856 37.4368 35.9848 36.6688 34.0351 36.6688C32.0854 36.6688 30.2142 37.4368 28.8268 38.8066C28.1383 39.4688 27.5906 40.2631 27.2164 41.142C26.8423 42.0209 26.6494 42.9664 26.6494 43.9216C26.6494 44.8768 26.8423 45.8223 27.2164 46.7012C27.5906 47.5801 28.1383 48.3744 28.8268 49.0366Z" fill="black"/>
<path d="M63.3333 13.3332H56.6667V6.6665H50V13.3332H30V6.6665H23.3333V13.3332H16.6667C12.99 13.3332 10 16.3232 10 19.9998V66.6665C10 70.3432 12.99 73.3332 16.6667 73.3332H63.3333C67.01 73.3332 70 70.3432 70 66.6665V19.9998C70 16.3232 67.01 13.3332 63.3333 13.3332ZM63.34 66.6665H16.6667V26.6665H63.3333L63.34 66.6665Z" fill="black"/>
</svg>
