<svg width="80" height="80" viewBox="0 0 80 80" fill="none" xmlns="http://www.w3.org/2000/svg">
<path d="M72.2721 49.4218L62.2183 42.8437L66.0893 35.7471C67.0229 33.9751 67.512 32.0028 67.5146 29.9999V18.7499C67.5224 15.5867 66.6062 12.49 64.8786 9.84017C63.151 7.19033 60.6871 5.10269 57.7896 3.8336C54.8921 2.56451 51.687 2.16921 48.5679 2.69626C45.4489 3.2233 42.5516 4.64974 40.2319 6.80041L43.6301 10.4687C45.2374 8.98256 47.2434 7.99773 49.4023 7.63495C51.5611 7.27218 53.7789 7.54722 55.7837 8.42637C57.7885 9.30552 59.4932 10.7506 60.6888 12.5843C61.8844 14.4181 62.5189 16.5609 62.5146 18.7499V29.9999C62.5141 31.1662 62.2347 32.3155 61.6997 33.3518L55.6191 44.4999L69.5344 53.6053C70.453 54.2064 71.2068 55.0276 71.7272 55.9941C72.2477 56.9607 72.5183 58.042 72.5146 59.1398V67.4999H61.2646V72.4999H77.5146V59.1396C77.5196 57.2113 77.0427 55.3123 76.1271 53.6151C75.2116 51.918 73.8864 50.4766 72.2721 49.4218Z" fill="black"/>
<path d="M49.772 54.4218L39.7184 47.8437L43.5892 40.7471C44.5229 38.9751 45.012 37.0028 45.0145 34.9999V23.7499C45.0113 19.4378 43.2978 15.303 40.2498 12.2527C37.2018 9.20235 33.0684 7.48558 28.7562 7.479C19.8005 7.479 12.5145 14.7782 12.5145 23.7499V34.9999C12.505 37.0019 12.9888 38.9754 13.9231 40.746L17.815 47.881L7.81984 54.4218C6.20736 55.4749 4.88337 56.9139 3.96801 58.6084C3.05265 60.3028 2.5749 62.1991 2.57812 64.1249L2.5 77.4999H55.0145V64.1396C55.0196 62.2113 54.5426 60.3123 53.6271 58.6151C52.7115 56.918 51.3864 55.4766 49.772 54.4218ZM50.0145 72.4999H7.52906L7.5775 64.1396C7.57372 63.0418 7.84437 61.9605 8.36483 60.994C8.8853 60.0274 9.63908 59.2062 10.5577 58.6051L24.4142 49.5381L18.3125 38.3518C17.7835 37.314 17.51 36.1648 17.5145 34.9999V23.7499C17.5145 20.7663 18.6998 17.9048 20.8096 15.795C22.9194 13.6852 25.7808 12.4999 28.7645 12.4999C31.7482 12.4999 34.6097 13.6852 36.7195 15.795C38.8293 17.9048 40.0145 20.7663 40.0145 23.7499V34.9999C40.014 36.1662 39.7347 37.3155 39.1997 38.3518L33.1191 49.4999L47.0344 58.6053C47.9529 59.2064 48.7067 60.0276 49.2272 60.9941C49.7476 61.9607 50.0183 63.042 50.0145 64.1398V72.4999Z" fill="black"/>
</svg>
