<svg width="40" height="29" viewBox="0 0 40 29" fill="none" xmlns="http://www.w3.org/2000/svg">
<path d="M28.1818 16.2078C26 16.2078 22.6 16.8966 20 18.2338C17.4 16.8764 14 16.2078 11.8182 16.2078C7.87273 16.2078 0 18.3958 0 22.7922V28.3636H40V22.7922C40 18.3958 32.1273 16.2078 28.1818 16.2078ZM20.9091 25.3247H2.72727V22.7922C2.72727 21.6982 7.38182 19.2468 11.8182 19.2468C16.2545 19.2468 20.9091 21.6982 20.9091 22.7922V25.3247ZM37.2727 25.3247H23.6364V22.7922C23.6364 21.8603 23.2727 21.0499 22.6909 20.3205C24.2909 19.7127 26.2545 19.2468 28.1818 19.2468C32.6182 19.2468 37.2727 21.6982 37.2727 22.7922V25.3247ZM11.8182 14.1818C15.3273 14.1818 18.1818 11.001 18.1818 7.09091C18.1818 3.18078 15.3273 0 11.8182 0C8.30909 0 5.45455 3.18078 5.45455 7.09091C5.45455 11.001 8.30909 14.1818 11.8182 14.1818ZM11.8182 3.03896C13.8182 3.03896 15.4545 4.86234 15.4545 7.09091C15.4545 9.31948 13.8182 11.1429 11.8182 11.1429C9.81818 11.1429 8.18182 9.31948 8.18182 7.09091C8.18182 4.86234 9.81818 3.03896 11.8182 3.03896ZM28.1818 14.1818C31.6909 14.1818 34.5455 11.001 34.5455 7.09091C34.5455 3.18078 31.6909 0 28.1818 0C24.6727 0 21.8182 3.18078 21.8182 7.09091C21.8182 11.001 24.6727 14.1818 28.1818 14.1818ZM28.1818 3.03896C30.1818 3.03896 31.8182 4.86234 31.8182 7.09091C31.8182 9.31948 30.1818 11.1429 28.1818 11.1429C26.1818 11.1429 24.5455 9.31948 24.5455 7.09091C24.5455 4.86234 26.1818 3.03896 28.1818 3.03896Z" fill="#FF6934"/>
</svg>
