<svg width="1440" height="400" viewBox="0 0 1440 400" fill="none" xmlns="http://www.w3.org/2000/svg">
<circle cx="455" cy="162" r="50" fill="#C4C4C4"/>
<rect width="1440" height="322" fill="black"/>
<line x1="0.00416652" y1="387.5" x2="1440" y2="399.5" stroke="white"/>
<path d="M843.6 143.8V155H841.008V150.408H835.92V155H833.328V143.8H835.92V148.216H841.008V143.8H843.6ZM851.674 155.192C850.511 155.192 849.461 154.941 848.522 154.44C847.594 153.939 846.863 153.251 846.33 152.376C845.807 151.491 845.546 150.499 845.546 149.4C845.546 148.301 845.807 147.315 846.33 146.44C846.863 145.555 847.594 144.861 848.522 144.36C849.461 143.859 850.511 143.608 851.674 143.608C852.837 143.608 853.882 143.859 854.81 144.36C855.738 144.861 856.469 145.555 857.002 146.44C857.535 147.315 857.802 148.301 857.802 149.4C857.802 150.499 857.535 151.491 857.002 152.376C856.469 153.251 855.738 153.939 854.81 154.44C853.882 154.941 852.837 155.192 851.674 155.192ZM851.674 152.984C852.335 152.984 852.933 152.835 853.466 152.536C853.999 152.227 854.415 151.8 854.714 151.256C855.023 150.712 855.178 150.093 855.178 149.4C855.178 148.707 855.023 148.088 854.714 147.544C854.415 147 853.999 146.579 853.466 146.28C852.933 145.971 852.335 145.816 851.674 145.816C851.013 145.816 850.415 145.971 849.882 146.28C849.349 146.579 848.927 147 848.618 147.544C848.319 148.088 848.17 148.707 848.17 149.4C848.17 150.093 848.319 150.712 848.618 151.256C848.927 151.8 849.349 152.227 849.882 152.536C850.415 152.835 851.013 152.984 851.674 152.984ZM869.942 155L869.926 148.28L866.63 153.816H865.462L862.182 148.424V155H859.75V143.8H861.894L866.086 150.76L870.214 143.8H872.342L872.374 155H869.942ZM883.703 152.92V155H875.031V143.8H883.495V145.88H877.607V148.312H882.807V150.328H877.607V152.92H883.703ZM924.336 145.912H920.752V143.8H930.512V145.912H926.928V155H924.336V145.912ZM937.174 155.192C936.011 155.192 934.961 154.941 934.022 154.44C933.094 153.939 932.363 153.251 931.83 152.376C931.307 151.491 931.046 150.499 931.046 149.4C931.046 148.301 931.307 147.315 931.83 146.44C932.363 145.555 933.094 144.861 934.022 144.36C934.961 143.859 936.011 143.608 937.174 143.608C938.337 143.608 939.382 143.859 940.31 144.36C941.238 144.861 941.969 145.555 942.502 146.44C943.035 147.315 943.302 148.301 943.302 149.4C943.302 150.499 943.035 151.491 942.502 152.376C941.969 153.251 941.238 153.939 940.31 154.44C939.382 154.941 938.337 155.192 937.174 155.192ZM937.174 152.984C937.835 152.984 938.433 152.835 938.966 152.536C939.499 152.227 939.915 151.8 940.214 151.256C940.523 150.712 940.678 150.093 940.678 149.4C940.678 148.707 940.523 148.088 940.214 147.544C939.915 147 939.499 146.579 938.966 146.28C938.433 145.971 937.835 145.816 937.174 145.816C936.513 145.816 935.915 145.971 935.382 146.28C934.849 146.579 934.427 147 934.118 147.544C933.819 148.088 933.67 148.707 933.67 149.4C933.67 150.093 933.819 150.712 934.118 151.256C934.427 151.8 934.849 152.227 935.382 152.536C935.915 152.835 936.513 152.984 937.174 152.984ZM950.226 155.192C948.626 155.192 947.378 154.749 946.482 153.864C945.597 152.979 945.154 151.715 945.154 150.072V143.8H947.746V149.976C947.746 151.981 948.578 152.984 950.242 152.984C951.053 152.984 951.671 152.744 952.098 152.264C952.525 151.773 952.738 151.011 952.738 149.976V143.8H955.298V150.072C955.298 151.715 954.85 152.979 953.954 153.864C953.069 154.749 951.826 155.192 950.226 155.192ZM964.995 155L962.835 151.88H962.707H960.451V155H957.859V143.8H962.707C963.699 143.8 964.558 143.965 965.283 144.296C966.019 144.627 966.585 145.096 966.979 145.704C967.374 146.312 967.571 147.032 967.571 147.864C967.571 148.696 967.369 149.416 966.963 150.024C966.569 150.621 966.003 151.08 965.267 151.4L967.779 155H964.995ZM964.947 147.864C964.947 147.235 964.745 146.755 964.339 146.424C963.934 146.083 963.342 145.912 962.563 145.912H960.451V149.816H962.563C963.342 149.816 963.934 149.645 964.339 149.304C964.745 148.963 964.947 148.483 964.947 147.864ZM1015.77 155.192C1014.62 155.192 1013.59 154.947 1012.66 154.456C1011.74 153.955 1011.02 153.267 1010.49 152.392C1009.96 151.507 1009.7 150.509 1009.7 149.4C1009.7 148.291 1009.96 147.299 1010.49 146.424C1011.02 145.539 1011.74 144.851 1012.66 144.36C1013.59 143.859 1014.63 143.608 1015.78 143.608C1016.75 143.608 1017.63 143.779 1018.41 144.12C1019.2 144.461 1019.86 144.952 1020.39 145.592L1018.73 147.128C1017.97 146.253 1017.03 145.816 1015.91 145.816C1015.22 145.816 1014.6 145.971 1014.05 146.28C1013.51 146.579 1013.08 147 1012.77 147.544C1012.48 148.088 1012.33 148.707 1012.33 149.4C1012.33 150.093 1012.48 150.712 1012.77 151.256C1013.08 151.8 1013.51 152.227 1014.05 152.536C1014.6 152.835 1015.22 152.984 1015.91 152.984C1017.03 152.984 1017.97 152.541 1018.73 151.656L1020.39 153.192C1019.86 153.843 1019.2 154.339 1018.41 154.68C1017.62 155.021 1016.74 155.192 1015.77 155.192ZM1027.33 155.192C1026.17 155.192 1025.12 154.941 1024.18 154.44C1023.25 153.939 1022.52 153.251 1021.99 152.376C1021.46 151.491 1021.2 150.499 1021.2 149.4C1021.2 148.301 1021.46 147.315 1021.99 146.44C1022.52 145.555 1023.25 144.861 1024.18 144.36C1025.12 143.859 1026.17 143.608 1027.33 143.608C1028.49 143.608 1029.54 143.859 1030.47 144.36C1031.39 144.861 1032.12 145.555 1032.66 146.44C1033.19 147.315 1033.46 148.301 1033.46 149.4C1033.46 150.499 1033.19 151.491 1032.66 152.376C1032.12 153.251 1031.39 153.939 1030.47 154.44C1029.54 154.941 1028.49 155.192 1027.33 155.192ZM1027.33 152.984C1027.99 152.984 1028.59 152.835 1029.12 152.536C1029.66 152.227 1030.07 151.8 1030.37 151.256C1030.68 150.712 1030.83 150.093 1030.83 149.4C1030.83 148.707 1030.68 148.088 1030.37 147.544C1030.07 147 1029.66 146.579 1029.12 146.28C1028.59 145.971 1027.99 145.816 1027.33 145.816C1026.67 145.816 1026.07 145.971 1025.54 146.28C1025 146.579 1024.58 147 1024.27 147.544C1023.98 148.088 1023.83 148.707 1023.83 149.4C1023.83 150.093 1023.98 150.712 1024.27 151.256C1024.58 151.8 1025 152.227 1025.54 152.536C1026.07 152.835 1026.67 152.984 1027.33 152.984ZM1040.83 155.192C1039.67 155.192 1038.62 154.941 1037.68 154.44C1036.75 153.939 1036.02 153.251 1035.49 152.376C1034.96 151.491 1034.7 150.499 1034.7 149.4C1034.7 148.301 1034.96 147.315 1035.49 146.44C1036.02 145.555 1036.75 144.861 1037.68 144.36C1038.62 143.859 1039.67 143.608 1040.83 143.608C1041.99 143.608 1043.04 143.859 1043.97 144.36C1044.89 144.861 1045.62 145.555 1046.16 146.44C1046.69 147.315 1046.96 148.301 1046.96 149.4C1046.96 150.499 1046.69 151.491 1046.16 152.376C1045.62 153.251 1044.89 153.939 1043.97 154.44C1043.04 154.941 1041.99 155.192 1040.83 155.192ZM1040.83 152.984C1041.49 152.984 1042.09 152.835 1042.62 152.536C1043.16 152.227 1043.57 151.8 1043.87 151.256C1044.18 150.712 1044.33 150.093 1044.33 149.4C1044.33 148.707 1044.18 148.088 1043.87 147.544C1043.57 147 1043.16 146.579 1042.62 146.28C1042.09 145.971 1041.49 145.816 1040.83 145.816C1040.17 145.816 1039.57 145.971 1039.04 146.28C1038.5 146.579 1038.08 147 1037.77 147.544C1037.48 148.088 1037.33 148.707 1037.33 149.4C1037.33 150.093 1037.48 150.712 1037.77 151.256C1038.08 151.8 1038.5 152.227 1039.04 152.536C1039.57 152.835 1040.17 152.984 1040.83 152.984ZM1052.99 150.6L1051.48 152.168V155H1048.91V143.8H1051.48V149.032L1056.44 143.8H1059.32L1054.68 148.792L1059.59 155H1056.57L1052.99 150.6ZM1060.75 143.8H1063.34V155H1060.75V143.8ZM1074.67 152.92V155H1066V143.8H1074.46V145.88H1068.58V148.312H1073.78V150.328H1068.58V152.92H1074.67ZM1080.41 155.192C1079.53 155.192 1078.67 155.075 1077.84 154.84C1077.02 154.595 1076.36 154.28 1075.85 153.896L1076.73 151.944C1077.21 152.296 1077.78 152.579 1078.45 152.792C1079.11 153.005 1079.77 153.112 1080.43 153.112C1081.17 153.112 1081.71 153.005 1082.06 152.792C1082.41 152.568 1082.59 152.275 1082.59 151.912C1082.59 151.645 1082.48 151.427 1082.27 151.256C1082.07 151.075 1081.8 150.931 1081.47 150.824C1081.15 150.717 1080.71 150.6 1080.16 150.472C1079.3 150.269 1078.61 150.067 1078.06 149.864C1077.52 149.661 1077.05 149.336 1076.65 148.888C1076.27 148.44 1076.08 147.843 1076.08 147.096C1076.08 146.445 1076.25 145.859 1076.61 145.336C1076.96 144.803 1077.49 144.381 1078.19 144.072C1078.9 143.763 1079.77 143.608 1080.8 143.608C1081.51 143.608 1082.21 143.693 1082.89 143.864C1083.58 144.035 1084.17 144.28 1084.69 144.6L1083.89 146.568C1082.85 145.981 1081.82 145.688 1080.78 145.688C1080.06 145.688 1079.52 145.805 1079.17 146.04C1078.82 146.275 1078.65 146.584 1078.65 146.968C1078.65 147.352 1078.85 147.64 1079.25 147.832C1079.65 148.013 1080.26 148.195 1081.09 148.376C1081.94 148.579 1082.64 148.781 1083.18 148.984C1083.73 149.187 1084.19 149.507 1084.57 149.944C1084.97 150.381 1085.17 150.973 1085.17 151.72C1085.17 152.36 1084.98 152.947 1084.62 153.48C1084.27 154.003 1083.74 154.419 1083.02 154.728C1082.31 155.037 1081.44 155.192 1080.41 155.192ZM1096.32 143.8C1097.31 143.8 1098.17 143.965 1098.89 144.296C1099.63 144.627 1100.19 145.096 1100.59 145.704C1100.98 146.312 1101.18 147.032 1101.18 147.864C1101.18 148.685 1100.98 149.405 1100.59 150.024C1100.19 150.632 1099.63 151.101 1098.89 151.432C1098.17 151.752 1097.31 151.912 1096.32 151.912H1094.06V155H1091.47V143.8H1096.32ZM1096.17 149.8C1096.95 149.8 1097.54 149.635 1097.95 149.304C1098.35 148.963 1098.56 148.483 1098.56 147.864C1098.56 147.235 1098.35 146.755 1097.95 146.424C1097.54 146.083 1096.95 145.912 1096.17 145.912H1094.06V149.8H1096.17ZM1108.61 155.192C1107.45 155.192 1106.4 154.941 1105.46 154.44C1104.53 153.939 1103.8 153.251 1103.27 152.376C1102.74 151.491 1102.48 150.499 1102.48 149.4C1102.48 148.301 1102.74 147.315 1103.27 146.44C1103.8 145.555 1104.53 144.861 1105.46 144.36C1106.4 143.859 1107.45 143.608 1108.61 143.608C1109.77 143.608 1110.82 143.859 1111.75 144.36C1112.68 144.861 1113.41 145.555 1113.94 146.44C1114.47 147.315 1114.74 148.301 1114.74 149.4C1114.74 150.499 1114.47 151.491 1113.94 152.376C1113.41 153.251 1112.68 153.939 1111.75 154.44C1110.82 154.941 1109.77 155.192 1108.61 155.192ZM1108.61 152.984C1109.27 152.984 1109.87 152.835 1110.4 152.536C1110.94 152.227 1111.35 151.8 1111.65 151.256C1111.96 150.712 1112.12 150.093 1112.12 149.4C1112.12 148.707 1111.96 148.088 1111.65 147.544C1111.35 147 1110.94 146.579 1110.4 146.28C1109.87 145.971 1109.27 145.816 1108.61 145.816C1107.95 145.816 1107.35 145.971 1106.82 146.28C1106.29 146.579 1105.86 147 1105.56 147.544C1105.26 148.088 1105.11 148.707 1105.11 149.4C1105.11 150.093 1105.26 150.712 1105.56 151.256C1105.86 151.8 1106.29 152.227 1106.82 152.536C1107.35 152.835 1107.95 152.984 1108.61 152.984ZM1116.69 143.8H1119.28V152.888H1124.9V155H1116.69V143.8ZM1126.34 143.8H1128.94V155H1126.34V143.8ZM1136.95 155.192C1135.81 155.192 1134.78 154.947 1133.85 154.456C1132.93 153.955 1132.21 153.267 1131.67 152.392C1131.15 151.507 1130.89 150.509 1130.89 149.4C1130.89 148.291 1131.15 147.299 1131.67 146.424C1132.21 145.539 1132.93 144.851 1133.85 144.36C1134.78 143.859 1135.82 143.608 1136.97 143.608C1137.94 143.608 1138.81 143.779 1139.59 144.12C1140.38 144.461 1141.04 144.952 1141.58 145.592L1139.91 147.128C1139.16 146.253 1138.22 145.816 1137.1 145.816C1136.4 145.816 1135.79 145.971 1135.24 146.28C1134.7 146.579 1134.27 147 1133.96 147.544C1133.66 148.088 1133.51 148.707 1133.51 149.4C1133.51 150.093 1133.66 150.712 1133.96 151.256C1134.27 151.8 1134.7 152.227 1135.24 152.536C1135.79 152.835 1136.4 152.984 1137.1 152.984C1138.22 152.984 1139.16 152.541 1139.91 151.656L1141.58 153.192C1141.04 153.843 1140.38 154.339 1139.59 154.68C1138.8 155.021 1137.92 155.192 1136.95 155.192ZM1148.59 151.032V155H1146V151L1141.67 143.8H1144.42L1147.41 148.776L1150.4 143.8H1152.95L1148.59 151.032ZM1194.81 143.8H1197.4V152.888H1203.02V155H1194.81V143.8ZM1213.14 152.92V155H1204.47V143.8H1212.93V145.88H1207.04V148.312H1212.24V150.328H1207.04V152.92H1213.14ZM1222.74 149.224H1225.11V153.768C1224.5 154.227 1223.8 154.579 1223 154.824C1222.2 155.069 1221.39 155.192 1220.58 155.192C1219.42 155.192 1218.37 154.947 1217.44 154.456C1216.52 153.955 1215.79 153.267 1215.25 152.392C1214.73 151.507 1214.47 150.509 1214.47 149.4C1214.47 148.291 1214.73 147.299 1215.25 146.424C1215.79 145.539 1216.52 144.851 1217.46 144.36C1218.4 143.859 1219.45 143.608 1220.63 143.608C1221.61 143.608 1222.5 143.773 1223.3 144.104C1224.1 144.435 1224.77 144.915 1225.32 145.544L1223.65 147.08C1222.85 146.237 1221.89 145.816 1220.76 145.816C1220.04 145.816 1219.41 145.965 1218.85 146.264C1218.3 146.563 1217.87 146.984 1217.56 147.528C1217.25 148.072 1217.09 148.696 1217.09 149.4C1217.09 150.093 1217.25 150.712 1217.56 151.256C1217.87 151.8 1218.29 152.227 1218.84 152.536C1219.39 152.835 1220.02 152.984 1220.72 152.984C1221.47 152.984 1222.14 152.824 1222.74 152.504V149.224ZM1234.89 152.6H1229.69L1228.7 155H1226.04L1231.04 143.8H1233.6L1238.6 155H1235.88L1234.89 152.6ZM1234.08 150.632L1232.3 146.344L1230.52 150.632H1234.08ZM1239.77 143.8H1242.36V152.888H1247.97V155H1239.77V143.8ZM1256.27 145.912H1252.69V143.8H1262.45V145.912H1258.87V155H1256.27V145.912ZM1272.52 152.92V155H1263.84V143.8H1272.31V145.88H1266.42V148.312H1271.62V150.328H1266.42V152.92H1272.52ZM1281.71 155L1279.55 151.88H1279.43H1277.17V155H1274.58V143.8H1279.43C1280.42 143.8 1281.28 143.965 1282 144.296C1282.74 144.627 1283.3 145.096 1283.7 145.704C1284.09 146.312 1284.29 147.032 1284.29 147.864C1284.29 148.696 1284.09 149.416 1283.68 150.024C1283.29 150.621 1282.72 151.08 1281.99 151.4L1284.5 155H1281.71ZM1281.67 147.864C1281.67 147.235 1281.46 146.755 1281.06 146.424C1280.65 146.083 1280.06 145.912 1279.28 145.912H1277.17V149.816H1279.28C1280.06 149.816 1280.65 149.645 1281.06 149.304C1281.46 148.963 1281.67 148.483 1281.67 147.864ZM1296.54 155L1296.52 148.28L1293.22 153.816H1292.06L1288.78 148.424V155H1286.34V143.8H1288.49L1292.68 150.76L1296.81 143.8H1298.94L1298.97 155H1296.54ZM1305.3 155.192C1304.42 155.192 1303.56 155.075 1302.73 154.84C1301.91 154.595 1301.25 154.28 1300.74 153.896L1301.62 151.944C1302.1 152.296 1302.68 152.579 1303.34 152.792C1304 153.005 1304.66 153.112 1305.32 153.112C1306.06 153.112 1306.6 153.005 1306.95 152.792C1307.3 152.568 1307.48 152.275 1307.48 151.912C1307.48 151.645 1307.37 151.427 1307.16 151.256C1306.96 151.075 1306.69 150.931 1306.36 150.824C1306.04 150.717 1305.6 150.6 1305.05 150.472C1304.2 150.269 1303.5 150.067 1302.95 149.864C1302.41 149.661 1301.94 149.336 1301.54 148.888C1301.16 148.44 1300.97 147.843 1300.97 147.096C1300.97 146.445 1301.14 145.859 1301.5 145.336C1301.85 144.803 1302.38 144.381 1303.08 144.072C1303.8 143.763 1304.66 143.608 1305.69 143.608C1306.4 143.608 1307.1 143.693 1307.78 143.864C1308.47 144.035 1309.06 144.28 1309.58 144.6L1308.78 146.568C1307.74 145.981 1306.71 145.688 1305.67 145.688C1304.95 145.688 1304.41 145.805 1304.06 146.04C1303.72 146.275 1303.54 146.584 1303.54 146.968C1303.54 147.352 1303.74 147.64 1304.14 147.832C1304.54 148.013 1305.16 148.195 1305.98 148.376C1306.83 148.579 1307.53 148.781 1308.07 148.984C1308.62 149.187 1309.08 149.507 1309.46 149.944C1309.86 150.381 1310.06 150.973 1310.06 151.72C1310.06 152.36 1309.88 152.947 1309.51 153.48C1309.16 154.003 1308.63 154.419 1307.91 154.728C1307.2 155.037 1306.33 155.192 1305.3 155.192Z" fill="white" fill-opacity="0.903504"/>
<path d="M121.804 164.556H125.544V147.528H121.804V143.084H133.376C136.749 143.084 139.331 143.685 141.12 144.888C142.939 146.061 143.848 147.777 143.848 150.036C143.848 151.327 143.54 152.471 142.924 153.468C142.337 154.436 141.487 155.213 140.372 155.8C141.721 156.211 142.763 156.944 143.496 158C144.259 159.027 144.64 160.317 144.64 161.872C144.64 164.131 143.892 165.891 142.396 167.152C140.9 168.384 138.715 169 135.84 169H121.804V164.556ZM135.356 154.04C136.383 154.04 137.16 153.761 137.688 153.204C138.245 152.617 138.524 151.811 138.524 150.784C138.524 148.613 136.969 147.528 133.86 147.528H130.648V154.04H135.356ZM135.048 164.556C136.456 164.556 137.527 164.277 138.26 163.72C138.993 163.133 139.36 162.297 139.36 161.212C139.36 160.185 139.008 159.393 138.304 158.836C137.629 158.279 136.632 158 135.312 158H130.648V164.556H135.048ZM147.93 143.084H167.906L170.502 150.872L166.322 152.28L164.65 147.528H156.774V153.6H164.254V158H156.774V164.556H165.75L167.378 160.156L171.514 161.608L168.962 169H147.886V164.556H151.626L151.67 147.528H147.93V143.084ZM174.743 143.084H194.719L197.403 151.136L193.223 152.544L191.507 147.528H183.543V153.732H190.319V158.176H183.499V164.556H189.087V169H174.699V164.556H178.483L178.527 147.528H174.743V143.084ZM200.266 143.084H213.73V147.528H209.55V164.556H213.73V169H200.222V164.556H204.49V147.528H200.266V143.084ZM216.84 143.084H240.292V151.884H235.76V147.528H231.14L231.096 164.556H234.836V169H222.208V164.556H225.948L225.992 147.528H221.372V151.884H216.84V143.084Z" fill="#FF4301"/>
<path d="M1215.43 241.857C1215.43 243.43 1214.15 244.714 1212.57 244.714C1211 244.714 1209.71 243.43 1209.71 241.857C1209.71 240.283 1211 239 1212.57 239C1214.15 239 1215.43 240.283 1215.43 241.857ZM1216.97 241.857C1216.97 239.424 1215 237.459 1212.57 237.459C1210.14 237.459 1208.17 239.424 1208.17 241.857C1208.17 244.29 1210.14 246.254 1212.57 246.254C1215 246.254 1216.97 244.29 1216.97 241.857ZM1218.17 237.281C1218.17 236.712 1217.72 236.254 1217.15 236.254C1216.58 236.254 1216.12 236.712 1216.12 237.281C1216.12 237.85 1216.58 238.308 1217.15 238.308C1217.72 238.308 1218.17 237.85 1218.17 237.281ZM1212.57 234.825C1213.82 234.825 1216.5 234.725 1217.63 235.171C1218.02 235.328 1218.31 235.517 1218.61 235.819C1218.91 236.12 1219.1 236.41 1219.26 236.801C1219.7 237.928 1219.6 240.607 1219.6 241.857C1219.6 243.107 1219.7 245.785 1219.26 246.912C1219.1 247.303 1218.91 247.593 1218.61 247.895C1218.31 248.196 1218.02 248.386 1217.63 248.542C1216.5 248.988 1213.82 248.888 1212.57 248.888C1211.32 248.888 1208.64 248.988 1207.52 248.542C1207.12 248.386 1206.83 248.196 1206.53 247.895C1206.23 247.593 1206.04 247.303 1205.89 246.912C1205.44 245.785 1205.54 243.107 1205.54 241.857C1205.54 240.607 1205.44 237.928 1205.89 236.801C1206.04 236.41 1206.23 236.12 1206.53 235.819C1206.83 235.517 1207.12 235.328 1207.52 235.171C1208.64 234.725 1211.32 234.825 1212.57 234.825ZM1221.14 241.857C1221.14 240.674 1221.15 239.502 1221.09 238.319C1221.02 236.946 1220.71 235.729 1219.7 234.725C1218.7 233.72 1217.48 233.408 1216.11 233.341C1214.93 233.274 1213.75 233.285 1212.57 233.285C1211.39 233.285 1210.22 233.274 1209.03 233.341C1207.66 233.408 1206.44 233.72 1205.44 234.725C1204.44 235.729 1204.12 236.946 1204.06 238.319C1203.99 239.502 1204 240.674 1204 241.857C1204 243.04 1203.99 244.212 1204.06 245.395C1204.12 246.767 1204.44 247.984 1205.44 248.988C1206.44 249.993 1207.66 250.305 1209.03 250.372C1210.22 250.439 1211.39 250.428 1212.57 250.428C1213.75 250.428 1214.93 250.439 1216.11 250.372C1217.48 250.305 1218.7 249.993 1219.7 248.988C1220.71 247.984 1221.02 246.767 1221.09 245.395C1221.15 244.212 1221.14 243.04 1221.14 241.857ZM1274.23 236.41C1273.58 236.689 1272.88 236.89 1272.15 236.968C1272.9 236.522 1273.47 235.819 1273.74 234.982C1273.05 235.395 1272.26 235.696 1271.45 235.852C1270.79 235.149 1269.85 234.714 1268.82 234.714C1266.82 234.714 1265.21 236.332 1265.21 238.319C1265.21 238.598 1265.24 238.877 1265.3 239.145C1262.31 238.988 1259.64 237.56 1257.87 235.372C1257.55 235.908 1257.38 236.522 1257.38 237.191C1257.38 238.441 1258.01 239.546 1258.98 240.194C1258.39 240.171 1257.83 240.004 1257.35 239.736C1257.35 239.747 1257.35 239.77 1257.35 239.781C1257.35 241.533 1258.59 242.984 1260.24 243.319C1259.94 243.397 1259.62 243.441 1259.3 243.441C1259.06 243.441 1258.84 243.419 1258.61 243.386C1259.07 244.814 1260.4 245.852 1261.99 245.886C1260.75 246.857 1259.2 247.426 1257.51 247.426C1257.21 247.426 1256.93 247.415 1256.64 247.381C1258.24 248.408 1260.13 249 1262.18 249C1268.8 249 1272.43 243.508 1272.43 238.743C1272.43 238.587 1272.43 238.43 1272.42 238.274C1273.12 237.761 1273.74 237.125 1274.23 236.41ZM1315.43 231.991C1315.12 231.946 1314.09 231.857 1312.88 231.857C1310.36 231.857 1308.63 233.397 1308.63 236.22V238.654H1305.78V241.957H1308.63V250.428H1312.04V241.957H1314.88L1315.31 238.654H1312.04V236.544C1312.04 235.595 1312.3 234.937 1313.67 234.937H1315.43V231.991Z" fill="#FF4301"/>
<path d="M121.104 242.776H117.072V240.4H128.052V242.776H124.02V253H121.104V242.776ZM141.177 240.4V253H138.261V247.834H132.537V253H129.621V240.4H132.537V245.368H138.261V240.4H141.177ZM153.914 250.66V253H144.158V240.4H153.68V242.74H147.056V245.476H152.906V247.744H147.056V250.66H153.914ZM175.682 246.448C176.402 246.676 176.966 247.06 177.374 247.6C177.782 248.128 177.986 248.782 177.986 249.562C177.986 250.666 177.554 251.518 176.69 252.118C175.838 252.706 174.59 253 172.946 253H166.43V240.4H172.586C174.122 240.4 175.298 240.694 176.114 241.282C176.942 241.87 177.356 242.668 177.356 243.676C177.356 244.288 177.206 244.834 176.906 245.314C176.618 245.794 176.21 246.172 175.682 246.448ZM169.328 242.596V245.566H172.226C172.946 245.566 173.492 245.44 173.864 245.188C174.236 244.936 174.422 244.564 174.422 244.072C174.422 243.58 174.236 243.214 173.864 242.974C173.492 242.722 172.946 242.596 172.226 242.596H169.328ZM172.73 250.804C173.498 250.804 174.074 250.678 174.458 250.426C174.854 250.174 175.052 249.784 175.052 249.256C175.052 248.212 174.278 247.69 172.73 247.69H169.328V250.804H172.73ZM189.949 250.66V253H180.193V240.4H189.715V242.74H183.091V245.476H188.941V247.744H183.091V250.66H189.949ZM196.409 253.216C195.413 253.216 194.447 253.084 193.511 252.82C192.587 252.544 191.843 252.19 191.279 251.758L192.269 249.562C192.809 249.958 193.451 250.276 194.195 250.516C194.939 250.756 195.683 250.876 196.427 250.876C197.255 250.876 197.867 250.756 198.263 250.516C198.659 250.264 198.857 249.934 198.857 249.526C198.857 249.226 198.737 248.98 198.497 248.788C198.269 248.584 197.969 248.422 197.597 248.302C197.237 248.182 196.745 248.05 196.121 247.906C195.161 247.678 194.375 247.45 193.763 247.222C193.151 246.994 192.623 246.628 192.179 246.124C191.747 245.62 191.531 244.948 191.531 244.108C191.531 243.376 191.729 242.716 192.125 242.128C192.521 241.528 193.115 241.054 193.907 240.706C194.711 240.358 195.689 240.184 196.841 240.184C197.645 240.184 198.431 240.28 199.199 240.472C199.967 240.664 200.639 240.94 201.215 241.3L200.315 243.514C199.151 242.854 197.987 242.524 196.823 242.524C196.007 242.524 195.401 242.656 195.005 242.92C194.621 243.184 194.429 243.532 194.429 243.964C194.429 244.396 194.651 244.72 195.095 244.936C195.551 245.14 196.241 245.344 197.165 245.548C198.125 245.776 198.911 246.004 199.523 246.232C200.135 246.46 200.657 246.82 201.089 247.312C201.533 247.804 201.755 248.47 201.755 249.31C201.755 250.03 201.551 250.69 201.143 251.29C200.747 251.878 200.147 252.346 199.343 252.694C198.539 253.042 197.561 253.216 196.409 253.216ZM206.182 242.776H202.15V240.4H213.13V242.776H209.098V253H206.182V242.776ZM238.841 240.4L234.719 253H231.587L228.815 244.468L225.953 253H222.839L218.699 240.4H221.723L224.567 249.256L227.537 240.4H230.237L233.117 249.328L236.051 240.4H238.841ZM248.345 250.3H242.495L241.379 253H238.391L244.007 240.4H246.887L252.521 253H249.461L248.345 250.3ZM247.427 248.086L245.429 243.262L243.431 248.086H247.427ZM259.103 248.536V253H256.187V248.5L251.309 240.4H254.405L257.771 245.998L261.137 240.4H263.999L259.103 248.536ZM272.926 242.776H268.894V240.4H279.874V242.776H275.842V253H272.926V242.776ZM287.369 253.216C286.061 253.216 284.879 252.934 283.823 252.37C282.779 251.806 281.957 251.032 281.357 250.048C280.769 249.052 280.475 247.936 280.475 246.7C280.475 245.464 280.769 244.354 281.357 243.37C281.957 242.374 282.779 241.594 283.823 241.03C284.879 240.466 286.061 240.184 287.369 240.184C288.677 240.184 289.853 240.466 290.897 241.03C291.941 241.594 292.763 242.374 293.363 243.37C293.963 244.354 294.263 245.464 294.263 246.7C294.263 247.936 293.963 249.052 293.363 250.048C292.763 251.032 291.941 251.806 290.897 252.37C289.853 252.934 288.677 253.216 287.369 253.216ZM287.369 250.732C288.113 250.732 288.785 250.564 289.385 250.228C289.985 249.88 290.453 249.4 290.789 248.788C291.137 248.176 291.311 247.48 291.311 246.7C291.311 245.92 291.137 245.224 290.789 244.612C290.453 244 289.985 243.526 289.385 243.19C288.785 242.842 288.113 242.668 287.369 242.668C286.625 242.668 285.953 242.842 285.353 243.19C284.753 243.526 284.279 244 283.931 244.612C283.595 245.224 283.427 245.92 283.427 246.7C283.427 247.48 283.595 248.176 283.931 248.788C284.279 249.4 284.753 249.88 285.353 250.228C285.953 250.564 286.625 250.732 287.369 250.732ZM310.805 246.448C311.525 246.676 312.089 247.06 312.497 247.6C312.905 248.128 313.109 248.782 313.109 249.562C313.109 250.666 312.677 251.518 311.813 252.118C310.961 252.706 309.713 253 308.069 253H301.553V240.4H307.709C309.245 240.4 310.421 240.694 311.237 241.282C312.065 241.87 312.479 242.668 312.479 243.676C312.479 244.288 312.329 244.834 312.029 245.314C311.741 245.794 311.333 246.172 310.805 246.448ZM304.451 242.596V245.566H307.349C308.069 245.566 308.615 245.44 308.987 245.188C309.359 244.936 309.545 244.564 309.545 244.072C309.545 243.58 309.359 243.214 308.987 242.974C308.615 242.722 308.069 242.596 307.349 242.596H304.451ZM307.853 250.804C308.621 250.804 309.197 250.678 309.581 250.426C309.977 250.174 310.175 249.784 310.175 249.256C310.175 248.212 309.401 247.69 307.853 247.69H304.451V250.804H307.853ZM325.072 250.66V253H315.316V240.4H324.838V242.74H318.214V245.476H324.064V247.744H318.214V250.66H325.072ZM349.144 240.4V253H346.228V247.834H340.504V253H337.588V240.4H340.504V245.368H346.228V240.4H349.144ZM361.881 250.66V253H352.125V240.4H361.647V242.74H355.023V245.476H360.873V247.744H355.023V250.66H361.881ZM372.499 250.3H366.649L365.533 253H362.545L368.161 240.4H371.041L376.675 253H373.615L372.499 250.3ZM371.581 248.086L369.583 243.262L367.585 248.086H371.581ZM377.982 240.4H380.898V250.624H387.216V253H377.982V240.4ZM390.278 242.776H386.246V240.4H397.226V242.776H393.194V253H390.278V242.776ZM410.351 240.4V253H407.435V247.834H401.711V253H398.795V240.4H401.711V245.368H407.435V240.4H410.351ZM419.38 248.536V253H416.464V248.5L411.586 240.4H414.682L418.048 245.998L421.414 240.4H424.276L419.38 248.536Z" fill="white"/>
<path d="M83.0845 205.976H1360" stroke="white" stroke-width="0.5"/>
</svg>
