<svg width="80" height="80" viewBox="0 0 80 80" fill="none" xmlns="http://www.w3.org/2000/svg">
<g clip-path="url(#clip0)">
<path fill-rule="evenodd" clip-rule="evenodd" d="M39.9995 13.7402L36.4145 10.0552C27.9995 1.40524 12.5695 4.39024 6.99947 15.2652C4.38447 20.3802 3.79447 27.7652 8.56948 37.1902C13.1695 46.2652 22.7395 57.1352 39.9995 68.9752C57.2595 57.1352 66.8245 46.2652 71.4295 37.1902C76.2045 27.7602 75.6195 20.3802 72.9995 15.2652C67.4295 4.39024 51.9995 1.40024 43.5845 10.0502L39.9995 13.7402ZM39.9995 75.0002C-36.6655 24.3402 16.3945 -15.1998 39.1195 5.71524C39.4195 5.99024 39.7145 6.27524 39.9995 6.57024C40.2816 6.27551 40.5751 5.99196 40.8795 5.72024C63.5995 -15.2098 116.664 24.3352 39.9995 75.0002Z" fill="white"/>
</g>
<defs>
<clipPath id="clip0">
<rect width="80" height="80" fill="white"/>
</clipPath>
</defs>
</svg>
