<svg width="1204" height="159" viewBox="0 0 1204 159" fill="none" xmlns="http://www.w3.org/2000/svg">
<path fill-rule="evenodd" clip-rule="evenodd" d="M1116 13.7402L1112.41 10.0552C1104 1.40524 1088.57 4.39024 1083 15.2652C1080.38 20.3802 1079.79 27.7652 1084.57 37.1902C1089.17 46.2652 1098.74 57.1352 1116 68.9752C1133.26 57.1352 1142.82 46.2652 1147.43 37.1902C1152.2 27.7602 1151.62 20.3802 1149 15.2652C1143.43 4.39024 1128 1.40024 1119.58 10.0502L1116 13.7402ZM1116 75.0002C1039.33 24.3402 1092.39 -15.1998 1115.12 5.71524C1115.42 5.99024 1115.71 6.27524 1116 6.57024C1116.28 6.27551 1116.58 5.99196 1116.88 5.72024C1139.6 -15.2098 1192.66 24.3352 1116 75.0002Z" fill="black"/>
<path d="M580 6.66671C561.62 6.66671 546.667 21.62 546.667 40C546.667 58.38 561.62 73.3334 580 73.3334C598.38 73.3334 613.333 58.38 613.333 40C613.333 21.62 598.38 6.66671 580 6.66671ZM580 66.6667C565.297 66.6667 553.333 54.7034 553.333 40C553.333 25.2967 565.297 13.3334 580 13.3334C594.703 13.3334 606.667 25.2967 606.667 40C606.667 54.7034 594.703 66.6667 580 66.6667Z" fill="black"/>
<path d="M583.333 23.3334H576.667V43.3334H596.667V36.6667H583.333V23.3334Z" fill="black"/>
<path d="M873 27.5001H858V15.0001C858.252 12.5999 857.54 10.198 856.021 8.32263C854.502 6.44729 852.3 5.25215 849.9 5.00013C849.269 4.92513 848.631 4.92513 848 5.00013H844.075C843.239 5.02302 842.435 5.32265 841.788 5.85202C841.141 6.38139 840.688 7.11055 840.5 7.92513V8.22513L838 24.0751L829.15 37.5001H813V72.5001H860.5C879.1 72.5001 883 61.6251 883 52.5001V37.5001C883.252 35.0999 882.54 32.698 881.021 30.8226C879.502 28.9473 877.3 27.7522 874.9 27.5001C874.269 27.4251 873.631 27.4251 873 27.5001ZM828 67.5001H818V42.5001H828V67.5001ZM878 52.5001C878 62.7251 872.45 67.5001 860.5 67.5001H833V40.7501L843 25.9251L844.825 12.5001L845.175 10.0001H848C851.6 10.0001 853 11.4001 853 15.0001V32.5001H873C876.6 32.5001 878 33.9001 878 37.5001V52.5001Z" fill="black"/>
<path d="M34.8267 56.0365L45.99 66.9999L57.1567 56.0365C57.8452 55.3744 58.3929 54.58 58.767 53.7011C59.1412 52.8222 59.334 51.8768 59.334 50.9215C59.334 49.9663 59.1412 49.0209 58.767 48.142C58.3929 47.263 57.8452 46.4687 57.1567 45.8065C55.7687 44.4365 53.8969 43.6684 51.9467 43.6684C49.9964 43.6684 48.1247 44.4365 46.7367 45.8065L45.99 46.5365L45.2433 45.8065C43.8559 44.4368 41.9847 43.6687 40.035 43.6687C38.0853 43.6687 36.2141 44.4368 34.8267 45.8065C34.1381 46.4687 33.5904 47.263 33.2163 48.142C32.8421 49.0209 32.6493 49.9663 32.6493 50.9215C32.6493 51.8768 32.8421 52.8222 33.2163 53.7011C33.5904 54.58 34.1381 55.3744 34.8267 56.0365Z" fill="black"/>
<path d="M69.3333 20.3334H62.6667V13.6667H56V20.3334H36V13.6667H29.3333V20.3334H22.6667C18.99 20.3334 16 23.3234 16 27V73.6667C16 77.3434 18.99 80.3334 22.6667 80.3334H69.3333C73.01 80.3334 76 77.3434 76 73.6667V27C76 23.3234 73.01 20.3334 69.3333 20.3334ZM69.34 73.6667H22.6667V33.6667H69.3333L69.34 73.6667Z" fill="black"/>
<path d="M345.272 49.4221L335.218 42.844L339.089 35.7474C340.023 33.9754 340.512 32.0031 340.515 30.0002V18.7502C340.522 15.5869 339.606 12.4903 337.879 9.84043C336.151 7.19059 333.687 5.10295 330.79 3.83386C327.892 2.56477 324.687 2.16948 321.568 2.69652C318.449 3.22357 315.552 4.65001 313.232 6.80068L316.63 10.469C318.237 8.98282 320.243 7.99799 322.402 7.63522C324.561 7.27244 326.779 7.54749 328.784 8.42664C330.788 9.30578 332.493 10.7508 333.689 12.5846C334.884 14.4183 335.519 16.5611 335.515 18.7502V30.0002C335.514 31.1665 335.235 32.3157 334.7 33.3521L328.619 44.5002L342.534 53.6055C343.453 54.2067 344.207 55.0278 344.727 55.9944C345.248 56.961 345.518 58.0423 345.515 59.1401V67.5002H334.265V72.5002H350.515V59.1399C350.52 57.2116 350.043 55.3125 349.127 53.6154C348.212 51.9183 346.886 50.4768 345.272 49.4221Z" fill="black"/>
<path d="M322.772 54.4221L312.718 47.844L316.589 40.7474C317.523 38.9754 318.012 37.0031 318.015 35.0002V23.7502C318.011 19.4381 316.298 15.3033 313.25 12.2529C310.202 9.20262 306.068 7.48585 301.756 7.47927C292.8 7.47927 285.515 14.7785 285.515 23.7502V35.0002C285.505 37.0022 285.989 38.9757 286.923 40.7463L290.815 47.8813L280.82 54.4221C279.207 55.4752 277.883 56.9142 276.968 58.6087C276.053 60.3031 275.575 62.1993 275.578 64.1252L275.5 77.5002H328.015V64.1399C328.02 62.2116 327.543 60.3125 326.627 58.6154C325.712 56.9183 324.386 55.4768 322.772 54.4221ZM323.015 72.5002H280.529L280.577 64.1399C280.574 63.0421 280.844 61.9608 281.365 60.9942C281.885 60.0277 282.639 59.2065 283.558 58.6054L297.414 49.5383L291.312 38.3521C290.784 37.3142 290.51 36.1651 290.515 35.0002V23.7502C290.515 20.7665 291.7 17.905 293.81 15.7953C295.919 13.6855 298.781 12.5002 301.765 12.5002C304.748 12.5002 307.61 13.6855 309.719 15.7953C311.829 17.905 313.015 20.7665 313.015 23.7502V35.0002C313.014 36.1665 312.735 37.3157 312.2 38.3521L306.119 49.5002L320.034 58.6055C320.953 59.2067 321.707 60.0278 322.227 60.9944C322.748 61.961 323.018 63.0423 323.015 64.1401V72.5002Z" fill="black"/>
<path d="M7.32599 146.516C8.70599 146.516 9.83399 145.97 10.71 144.878L12.51 146.732C11.082 148.34 9.39599 149.144 7.45199 149.144C5.51999 149.144 3.92399 148.532 2.66399 147.308C1.41599 146.084 0.791992 144.542 0.791992 142.682C0.791992 140.81 1.42799 139.25 2.69999 138.002C3.98399 136.754 5.54999 136.13 7.39799 136.13C9.46199 136.13 11.19 136.916 12.582 138.488L10.836 140.468C9.94799 139.364 8.84399 138.812 7.52399 138.812C6.46799 138.812 5.56199 139.16 4.80599 139.856C4.06199 140.54 3.68999 141.47 3.68999 142.646C3.68999 143.81 4.04399 144.746 4.75199 145.454C5.45999 146.162 6.31799 146.516 7.32599 146.516Z" fill="black"/>
<path d="M16.2349 144.158C16.2349 144.95 16.4569 145.598 16.9009 146.102C17.3569 146.594 17.9329 146.84 18.6289 146.84C19.3369 146.84 19.9129 146.594 20.3569 146.102C20.8129 145.598 21.0409 144.95 21.0409 144.158C21.0409 143.366 20.8129 142.718 20.3569 142.214C19.9129 141.71 19.3369 141.458 18.6289 141.458C17.9329 141.458 17.3569 141.71 16.9009 142.214C16.4569 142.718 16.2349 143.366 16.2349 144.158ZM23.7589 144.158C23.7589 145.562 23.2729 146.744 22.3009 147.704C21.3289 148.664 20.1049 149.144 18.6289 149.144C17.1649 149.144 15.9469 148.664 14.9749 147.704C14.0029 146.744 13.5169 145.562 13.5169 144.158C13.5169 142.754 14.0029 141.572 14.9749 140.612C15.9469 139.64 17.1649 139.154 18.6289 139.154C20.1049 139.154 21.3289 139.64 22.3009 140.612C23.2729 141.572 23.7589 142.754 23.7589 144.158Z" fill="black"/>
<path d="M28.4643 143.6V149H25.7643V139.316H28.4643V140.396C29.2803 139.568 30.1983 139.154 31.2183 139.154C32.2383 139.154 33.0903 139.514 33.7743 140.234C34.4703 140.954 34.8183 141.914 34.8183 143.114V149H32.1183V143.528C32.1183 142.04 31.5723 141.296 30.4803 141.296C29.9403 141.296 29.4663 141.494 29.0583 141.89C28.6623 142.274 28.4643 142.844 28.4643 143.6Z" fill="black"/>
<path d="M44.5504 145.994C44.5504 146.942 44.1964 147.704 43.4884 148.28C42.7924 148.856 41.9044 149.144 40.8244 149.144C40.1044 149.144 39.3544 149.018 38.5744 148.766C37.7944 148.502 37.0924 148.118 36.4684 147.614L37.6564 145.922C38.6644 146.702 39.7384 147.092 40.8784 147.092C41.2264 147.092 41.5024 147.026 41.7064 146.894C41.9104 146.75 42.0124 146.564 42.0124 146.336C42.0124 146.108 41.8684 145.898 41.5804 145.706C41.3044 145.514 40.8964 145.334 40.3564 145.166C39.8284 144.998 39.4204 144.854 39.1324 144.734C38.8564 144.614 38.5384 144.44 38.1784 144.212C37.4464 143.756 37.0804 143.084 37.0804 142.196C37.0804 141.296 37.4404 140.564 38.1604 140C38.8804 139.436 39.8104 139.154 40.9504 139.154C42.0904 139.154 43.2304 139.538 44.3704 140.306L43.3624 142.106C42.5224 141.53 41.6824 141.242 40.8424 141.242C40.0144 141.242 39.6004 141.47 39.6004 141.926C39.6004 142.178 39.7324 142.376 39.9964 142.52C40.2604 142.664 40.6984 142.832 41.3104 143.024C41.9224 143.216 42.3544 143.366 42.6064 143.474C42.8704 143.57 43.1824 143.726 43.5424 143.942C44.2144 144.35 44.5504 145.034 44.5504 145.994Z" fill="black"/>
<path d="M52.858 144.536V139.316H55.576V149H52.858V147.722C52.186 148.67 51.316 149.144 50.248 149.144C49.192 149.144 48.304 148.814 47.584 148.154C46.864 147.482 46.504 146.492 46.504 145.184V139.316H49.222V144.59C49.222 146.078 49.768 146.822 50.86 146.822C51.4 146.822 51.868 146.63 52.264 146.246C52.66 145.85 52.858 145.28 52.858 144.536Z" fill="black"/>
<path d="M60.8256 149H58.1256V135.644H60.8256V149Z" fill="black"/>
<path d="M66.6035 141.26V145.598C66.6035 145.97 66.6995 146.264 66.8915 146.48C67.0835 146.684 67.3115 146.786 67.5755 146.786C68.0795 146.786 68.5055 146.558 68.8535 146.102L69.8615 147.992C69.0215 148.76 68.1335 149.144 67.1975 149.144C66.2735 149.144 65.4875 148.838 64.8395 148.226C64.2035 147.614 63.8855 146.78 63.8855 145.724V141.26H62.7515V139.316H63.8855V136.418H66.6035V139.316H68.9435V141.26H66.6035Z" fill="black"/>
<path d="M79.5352 149H76.9972V147.83C76.3012 148.706 75.4372 149.144 74.4052 149.144C73.3852 149.144 72.5272 148.85 71.8312 148.262C71.1352 147.662 70.7872 146.87 70.7872 145.886C70.7872 144.89 71.1472 144.146 71.8672 143.654C72.5872 143.162 73.5712 142.916 74.8192 142.916H76.8352V142.862C76.8352 141.83 76.2892 141.314 75.1972 141.314C74.7292 141.314 74.2312 141.41 73.7032 141.602C73.1872 141.782 72.7492 142.01 72.3892 142.286L71.1832 140.54C72.4552 139.616 73.9072 139.154 75.5392 139.154C76.7152 139.154 77.6752 139.448 78.4192 140.036C79.1632 140.624 79.5352 141.554 79.5352 142.826V149ZM76.8172 145.31V144.842H75.1252C74.0452 144.842 73.5052 145.178 73.5052 145.85C73.5052 146.198 73.6312 146.468 73.8832 146.66C74.1472 146.84 74.5192 146.93 74.9992 146.93C75.4792 146.93 75.8992 146.786 76.2592 146.498C76.6312 146.198 76.8172 145.802 76.8172 145.31Z" fill="black"/>
<path d="M85.1133 141.26V145.598C85.1133 145.97 85.2093 146.264 85.4013 146.48C85.5933 146.684 85.8213 146.786 86.0853 146.786C86.5893 146.786 87.0153 146.558 87.3633 146.102L88.3713 147.992C87.5313 148.76 86.6433 149.144 85.7073 149.144C84.7833 149.144 83.9973 148.838 83.3493 148.226C82.7133 147.614 82.3953 146.78 82.3953 145.724V141.26H81.2613V139.316H82.3953V136.418H85.1133V139.316H87.4533V141.26H85.1133Z" fill="black"/>
<path d="M92.519 149H89.819V139.316H92.519V149ZM90.035 138.092C89.735 137.78 89.585 137.402 89.585 136.958C89.585 136.514 89.735 136.142 90.035 135.842C90.347 135.53 90.725 135.374 91.169 135.374C91.613 135.374 91.985 135.53 92.285 135.842C92.597 136.142 92.753 136.514 92.753 136.958C92.753 137.402 92.597 137.78 92.285 138.092C91.985 138.392 91.613 138.542 91.169 138.542C90.725 138.542 90.347 138.392 90.035 138.092Z" fill="black"/>
<path d="M97.2349 144.158C97.2349 144.95 97.4569 145.598 97.9009 146.102C98.3569 146.594 98.9329 146.84 99.6289 146.84C100.337 146.84 100.913 146.594 101.357 146.102C101.813 145.598 102.041 144.95 102.041 144.158C102.041 143.366 101.813 142.718 101.357 142.214C100.913 141.71 100.337 141.458 99.6289 141.458C98.9329 141.458 98.3569 141.71 97.9009 142.214C97.4569 142.718 97.2349 143.366 97.2349 144.158ZM104.759 144.158C104.759 145.562 104.273 146.744 103.301 147.704C102.329 148.664 101.105 149.144 99.6289 149.144C98.1649 149.144 96.9469 148.664 95.9749 147.704C95.0029 146.744 94.5169 145.562 94.5169 144.158C94.5169 142.754 95.0029 141.572 95.9749 140.612C96.9469 139.64 98.1649 139.154 99.6289 139.154C101.105 139.154 102.329 139.64 103.301 140.612C104.273 141.572 104.759 142.754 104.759 144.158Z" fill="black"/>
<path d="M109.464 143.6V149H106.764V139.316H109.464V140.396C110.28 139.568 111.198 139.154 112.218 139.154C113.238 139.154 114.09 139.514 114.774 140.234C115.47 140.954 115.818 141.914 115.818 143.114V149H113.118V143.528C113.118 142.04 112.572 141.296 111.48 141.296C110.94 141.296 110.466 141.494 110.058 141.89C109.662 142.274 109.464 142.844 109.464 143.6Z" fill="black"/>
<path d="M238.056 149H232.548V136.418H237.444C238.296 136.418 239.028 136.52 239.64 136.724C240.264 136.928 240.732 137.204 241.044 137.552C241.608 138.2 241.89 138.932 241.89 139.748C241.89 140.732 241.572 141.464 240.936 141.944C240.72 142.112 240.57 142.22 240.486 142.268C240.402 142.304 240.252 142.37 240.036 142.466C240.816 142.634 241.434 142.988 241.89 143.528C242.358 144.056 242.592 144.716 242.592 145.508C242.592 146.384 242.292 147.158 241.692 147.83C240.996 148.61 239.784 149 238.056 149ZM235.356 141.512H236.688C237.468 141.512 238.044 141.428 238.416 141.26C238.8 141.092 238.992 140.732 238.992 140.18C238.992 139.616 238.818 139.244 238.47 139.064C238.122 138.884 237.534 138.794 236.706 138.794H235.356V141.512ZM235.356 146.624H237.282C238.086 146.624 238.686 146.528 239.082 146.336C239.49 146.132 239.694 145.742 239.694 145.166C239.694 144.578 239.478 144.194 239.046 144.014C238.626 143.822 237.948 143.726 237.012 143.726H235.356V146.624Z" fill="black"/>
<path d="M253.076 147.596C251.984 148.628 250.7 149.144 249.224 149.144C247.76 149.144 246.548 148.694 245.588 147.794C244.628 146.882 244.148 145.664 244.148 144.14C244.148 142.616 244.634 141.404 245.606 140.504C246.59 139.604 247.748 139.154 249.08 139.154C250.412 139.154 251.54 139.556 252.464 140.36C253.4 141.164 253.868 142.268 253.868 143.672V145.112H246.812C246.896 145.64 247.172 146.072 247.64 146.408C248.108 146.744 248.636 146.912 249.224 146.912C250.172 146.912 250.952 146.594 251.564 145.958L253.076 147.596ZM251.132 143.186C251.072 142.61 250.856 142.166 250.484 141.854C250.112 141.542 249.656 141.386 249.116 141.386C248.588 141.386 248.102 141.548 247.658 141.872C247.214 142.196 246.956 142.634 246.884 143.186H251.132Z" fill="black"/>
<path d="M263.105 145.994C263.105 146.942 262.751 147.704 262.043 148.28C261.347 148.856 260.459 149.144 259.379 149.144C258.659 149.144 257.909 149.018 257.129 148.766C256.349 148.502 255.647 148.118 255.023 147.614L256.211 145.922C257.219 146.702 258.293 147.092 259.433 147.092C259.781 147.092 260.057 147.026 260.261 146.894C260.465 146.75 260.567 146.564 260.567 146.336C260.567 146.108 260.423 145.898 260.135 145.706C259.859 145.514 259.451 145.334 258.911 145.166C258.383 144.998 257.975 144.854 257.687 144.734C257.411 144.614 257.093 144.44 256.733 144.212C256.001 143.756 255.635 143.084 255.635 142.196C255.635 141.296 255.995 140.564 256.715 140C257.435 139.436 258.365 139.154 259.505 139.154C260.645 139.154 261.785 139.538 262.925 140.306L261.917 142.106C261.077 141.53 260.237 141.242 259.397 141.242C258.569 141.242 258.155 141.47 258.155 141.926C258.155 142.178 258.287 142.376 258.551 142.52C258.815 142.664 259.253 142.832 259.865 143.024C260.477 143.216 260.909 143.366 261.161 143.474C261.425 143.57 261.737 143.726 262.097 143.942C262.769 144.35 263.105 145.034 263.105 145.994Z" fill="black"/>
<path d="M268.318 141.26V145.598C268.318 145.97 268.414 146.264 268.606 146.48C268.798 146.684 269.026 146.786 269.29 146.786C269.794 146.786 270.22 146.558 270.568 146.102L271.576 147.992C270.736 148.76 269.848 149.144 268.912 149.144C267.988 149.144 267.202 148.838 266.554 148.226C265.918 147.614 265.6 146.78 265.6 145.724V141.26H264.466V139.316H265.6V136.418H268.318V139.316H270.658V141.26H268.318Z" fill="black"/>
<path d="M283.368 138.848V149H280.56V138.848H276.996V136.418H286.932V138.848H283.368Z" fill="black"/>
<path d="M293.815 141.692C293.011 141.692 292.411 141.98 292.015 142.556C291.619 143.12 291.421 143.87 291.421 144.806V149H288.721V139.316H291.421V140.594C291.769 140.198 292.201 139.862 292.717 139.586C293.245 139.31 293.779 139.166 294.319 139.154L294.337 141.692H293.815Z" fill="black"/>
<path d="M304.26 149H301.722V147.83C301.026 148.706 300.162 149.144 299.13 149.144C298.11 149.144 297.252 148.85 296.556 148.262C295.86 147.662 295.512 146.87 295.512 145.886C295.512 144.89 295.872 144.146 296.592 143.654C297.312 143.162 298.296 142.916 299.544 142.916H301.56V142.862C301.56 141.83 301.014 141.314 299.922 141.314C299.454 141.314 298.956 141.41 298.428 141.602C297.912 141.782 297.474 142.01 297.114 142.286L295.908 140.54C297.18 139.616 298.632 139.154 300.264 139.154C301.44 139.154 302.4 139.448 303.144 140.036C303.888 140.624 304.26 141.554 304.26 142.826V149ZM301.542 145.31V144.842H299.85C298.77 144.842 298.23 145.178 298.23 145.85C298.23 146.198 298.356 146.468 298.608 146.66C298.872 146.84 299.244 146.93 299.724 146.93C300.204 146.93 300.624 146.786 300.984 146.498C301.356 146.198 301.542 145.802 301.542 145.31Z" fill="black"/>
<path d="M309.421 149H306.721V139.316H309.421V149ZM306.937 138.092C306.637 137.78 306.487 137.402 306.487 136.958C306.487 136.514 306.637 136.142 306.937 135.842C307.249 135.53 307.627 135.374 308.071 135.374C308.515 135.374 308.887 135.53 309.187 135.842C309.499 136.142 309.655 136.514 309.655 136.958C309.655 137.402 309.499 137.78 309.187 138.092C308.887 138.392 308.515 138.542 308.071 138.542C307.627 138.542 307.249 138.392 306.937 138.092Z" fill="black"/>
<path d="M314.677 143.6V149H311.977V139.316H314.677V140.396C315.493 139.568 316.411 139.154 317.431 139.154C318.451 139.154 319.303 139.514 319.987 140.234C320.683 140.954 321.031 141.914 321.031 143.114V149H318.331V143.528C318.331 142.04 317.785 141.296 316.693 141.296C316.153 141.296 315.679 141.494 315.271 141.89C314.875 142.274 314.677 142.844 314.677 143.6Z" fill="black"/>
<path d="M331.861 147.596C330.769 148.628 329.485 149.144 328.009 149.144C326.545 149.144 325.333 148.694 324.373 147.794C323.413 146.882 322.933 145.664 322.933 144.14C322.933 142.616 323.419 141.404 324.391 140.504C325.375 139.604 326.533 139.154 327.865 139.154C329.197 139.154 330.325 139.556 331.249 140.36C332.185 141.164 332.653 142.268 332.653 143.672V145.112H325.597C325.681 145.64 325.957 146.072 326.425 146.408C326.893 146.744 327.421 146.912 328.009 146.912C328.957 146.912 329.737 146.594 330.349 145.958L331.861 147.596ZM329.917 143.186C329.857 142.61 329.641 142.166 329.269 141.854C328.897 141.542 328.441 141.386 327.901 141.386C327.373 141.386 326.887 141.548 326.443 141.872C325.999 142.196 325.741 142.634 325.669 143.186H329.917Z" fill="black"/>
<path d="M339.694 141.692C338.89 141.692 338.29 141.98 337.894 142.556C337.498 143.12 337.3 143.87 337.3 144.806V149H334.6V139.316H337.3V140.594C337.648 140.198 338.08 139.862 338.596 139.586C339.124 139.31 339.658 139.166 340.198 139.154L340.216 141.692H339.694Z" fill="black"/>
<path d="M349.22 145.994C349.22 146.942 348.866 147.704 348.158 148.28C347.462 148.856 346.574 149.144 345.494 149.144C344.774 149.144 344.024 149.018 343.244 148.766C342.464 148.502 341.762 148.118 341.138 147.614L342.326 145.922C343.334 146.702 344.408 147.092 345.548 147.092C345.896 147.092 346.172 147.026 346.376 146.894C346.58 146.75 346.682 146.564 346.682 146.336C346.682 146.108 346.538 145.898 346.25 145.706C345.974 145.514 345.566 145.334 345.026 145.166C344.498 144.998 344.09 144.854 343.802 144.734C343.526 144.614 343.208 144.44 342.848 144.212C342.116 143.756 341.75 143.084 341.75 142.196C341.75 141.296 342.11 140.564 342.83 140C343.55 139.436 344.48 139.154 345.62 139.154C346.76 139.154 347.9 139.538 349.04 140.306L348.032 142.106C347.192 141.53 346.352 141.242 345.512 141.242C344.684 141.242 344.27 141.47 344.27 141.926C344.27 142.178 344.402 142.376 344.666 142.52C344.93 142.664 345.368 142.832 345.98 143.024C346.592 143.216 347.024 143.366 347.276 143.474C347.54 143.57 347.852 143.726 348.212 143.942C348.884 144.35 349.22 145.034 349.22 145.994Z" fill="black"/>
<path d="M484.656 142.382V145.082H487.086V155H490.38V142.382H484.656Z" fill="black"/>
<path d="M499.509 148.106L494.919 152.822L494.937 155H504.549V152.354H499.149L501.741 149.762C503.145 148.34 504.189 146.918 504.189 145.55C504.189 143.552 502.335 142.22 499.779 142.22C497.943 142.22 496.179 142.94 494.559 144.128L495.801 146.558C496.971 145.568 498.267 144.956 499.293 144.956C500.211 144.956 500.733 145.352 500.733 146.036C500.733 146.576 500.211 147.386 499.509 148.106Z" fill="black"/>
<path d="M509.467 142.364L505.723 150.05V152.264H511.429V155H514.453V152.264H516.073V149.762H514.453V147.098H511.429L511.447 149.762H509.089L512.599 142.364H509.467Z" fill="black"/>
<path d="M521.854 142.22C519.19 142.22 517.444 143.516 517.444 145.55C517.444 146.612 518.092 147.638 519.118 148.232C517.714 148.826 516.814 150.068 516.814 151.49C516.814 153.722 518.794 155.144 521.872 155.144C524.968 155.144 526.966 153.704 526.966 151.436C526.966 150.032 526.12 148.826 524.806 148.232C525.742 147.692 526.318 146.702 526.318 145.64C526.318 143.552 524.59 142.22 521.854 142.22ZM521.872 144.434C522.97 144.434 523.564 144.92 523.564 145.82C523.564 146.684 522.97 147.17 521.872 147.17C520.792 147.17 520.198 146.684 520.198 145.82C520.198 144.92 520.792 144.434 521.872 144.434ZM521.89 149.582C523.168 149.582 523.888 150.14 523.888 151.148C523.888 152.174 523.168 152.732 521.872 152.732C520.594 152.732 519.892 152.174 519.892 151.148C519.892 150.14 520.594 149.582 521.89 149.582Z" fill="black"/>
<path d="M532.798 142.382L536.938 155H540.322L542.662 146.486L544.93 155H548.332L552.49 142.382H549.106L546.73 151.508L544.336 142.382H541.114L538.738 151.508L536.344 142.382H532.798Z" fill="black"/>
<path d="M556.963 145.154C553.759 145.154 551.653 147.134 551.653 150.122C551.653 153.128 553.759 155.108 556.963 155.108C560.167 155.108 562.291 153.128 562.291 150.122C562.291 147.134 560.167 145.154 556.963 145.154ZM556.963 147.746C558.223 147.746 559.069 148.718 559.069 150.158C559.069 151.616 558.223 152.588 556.963 152.588C555.721 152.588 554.875 151.616 554.875 150.158C554.875 148.718 555.721 147.746 556.963 147.746Z" fill="black"/>
<path d="M567.127 146.882V145.262H563.923V155H567.127V150.032C567.289 148.682 568.477 147.89 570.259 148.07V145.136C568.891 145.136 567.793 145.766 567.127 146.882Z" fill="black"/>
<path d="M577.994 155H581.774L578.138 149.024L581.702 145.262H578.066L574.952 148.556V141.644H571.748V155H574.952V152.354L575.942 151.328L577.994 155Z" fill="black"/>
<path d="M584.65 141.05C583.804 141.05 583.192 141.662 583.192 142.526C583.192 143.372 583.804 143.984 584.65 143.984C585.496 143.984 586.108 143.372 586.108 142.526C586.108 141.662 585.496 141.05 584.65 141.05ZM583.048 145.262V155H586.234V145.262H583.048Z" fill="black"/>
<path d="M595.117 145.136C593.695 145.136 592.579 145.73 591.895 146.846V145.262H588.691V155H591.895V149.852C592.021 148.754 592.723 148.016 593.803 147.998C594.811 147.998 595.459 148.682 595.459 149.78V155H598.645V148.862C598.645 146.576 597.241 145.136 595.117 145.136Z" fill="black"/>
<path d="M606.958 145.262V146.45C606.31 145.622 605.338 145.154 604.114 145.154C601.702 145.154 600.028 146.99 600.028 149.762C600.028 152.588 601.756 154.46 604.186 154.46C605.392 154.46 606.328 154.01 606.958 153.182V154.226C606.958 155.36 606.076 156.098 604.618 156.098C603.574 156.098 602.494 155.756 601.612 155.144L600.496 157.358C601.594 158.078 603.142 158.618 604.852 158.618C608.002 158.618 610.144 156.89 610.144 154.136V145.262H606.958ZM604.996 152.12C603.808 152.12 603.016 151.184 603.016 149.852C603.016 148.502 603.808 147.566 604.996 147.566C606.166 147.566 606.958 148.484 606.958 149.852C606.958 151.184 606.166 152.12 604.996 152.12Z" fill="black"/>
<path d="M617.888 142.382V155H621.182V150.158H626.276V155H629.57V142.382H626.276V147.53H621.182V142.382H617.888Z" fill="black"/>
<path d="M636.539 145.154C633.335 145.154 631.229 147.134 631.229 150.122C631.229 153.128 633.335 155.108 636.539 155.108C639.743 155.108 641.867 153.128 641.867 150.122C641.867 147.134 639.743 145.154 636.539 145.154ZM636.539 147.746C637.799 147.746 638.645 148.718 638.645 150.158C638.645 151.616 637.799 152.588 636.539 152.588C635.297 152.588 634.451 151.616 634.451 150.158C634.451 148.718 635.297 147.746 636.539 147.746Z" fill="black"/>
<path d="M649.799 145.262V150.068C649.799 151.346 649.115 152.246 647.981 152.264C647.027 152.264 646.415 151.598 646.415 150.5V145.262H643.211V151.418C643.211 153.686 644.579 155.144 646.685 155.144C648.071 155.126 649.133 154.55 649.799 153.416V155H653.003V145.262H649.799Z" fill="black"/>
<path d="M658.656 146.882V145.262H655.453V155H658.656V150.032C658.818 148.682 660.007 147.89 661.789 148.07V145.136C660.421 145.136 659.323 145.766 658.656 146.882Z" fill="black"/>
<path d="M669.685 148.34L670.765 146.252C669.541 145.514 668.119 145.118 666.715 145.118C664.429 145.118 662.719 146.234 662.719 148.268C662.719 151.634 667.741 150.968 667.741 152.3C667.741 152.696 667.309 152.894 666.715 152.894C665.635 152.894 664.375 152.462 663.259 151.688L662.251 153.758C663.439 154.676 665.005 155.144 666.643 155.144C669.019 155.144 670.765 154.01 670.765 152.012C670.783 148.628 665.671 149.24 665.671 147.962C665.671 147.548 666.049 147.35 666.589 147.35C667.381 147.35 668.479 147.71 669.685 148.34Z" fill="black"/>
<path d="M789.372 141.542C788.592 141.542 787.986 141.806 787.554 142.334C787.134 142.85 786.876 143.558 786.78 144.458C787.56 143.954 788.388 143.702 789.264 143.702C790.44 143.702 791.418 144.086 792.198 144.854C792.99 145.622 793.386 146.648 793.386 147.932C793.386 149.204 792.96 150.224 792.108 150.992C791.268 151.76 790.206 152.144 788.922 152.144C788.034 152.144 787.26 151.976 786.6 151.64C785.952 151.292 785.448 150.812 785.088 150.2C784.368 149.012 784.008 147.524 784.008 145.736C784.008 144.584 784.146 143.576 784.422 142.712C784.71 141.836 785.1 141.146 785.592 140.642C786.552 139.634 787.74 139.13 789.156 139.13C789.744 139.13 790.302 139.22 790.83 139.4C791.37 139.568 791.784 139.742 792.072 139.922C792.36 140.102 792.678 140.33 793.026 140.606L791.694 142.586C791.622 142.514 791.514 142.418 791.37 142.298C791.238 142.178 790.968 142.022 790.56 141.83C790.152 141.638 789.756 141.542 789.372 141.542ZM788.994 146.078C788.442 146.078 787.974 146.246 787.59 146.582C787.218 146.906 787.032 147.332 787.032 147.86C787.032 148.388 787.212 148.844 787.572 149.228C787.932 149.6 788.382 149.786 788.922 149.786C789.462 149.786 789.912 149.618 790.272 149.282C790.632 148.946 790.812 148.514 790.812 147.986C790.812 147.446 790.65 146.996 790.326 146.636C790.002 146.264 789.558 146.078 788.994 146.078Z" fill="black"/>
<path d="M798.694 142.604C798.298 143.372 798.1 144.386 798.1 145.646C798.1 146.906 798.298 147.92 798.694 148.688C799.09 149.456 799.708 149.84 800.548 149.84C801.388 149.84 802.006 149.456 802.402 148.688C802.798 147.92 802.996 146.906 802.996 145.646C802.996 144.386 802.798 143.372 802.402 142.604C802.006 141.836 801.388 141.452 800.548 141.452C799.708 141.452 799.09 141.836 798.694 142.604ZM800.548 152.144C798.808 152.144 797.506 151.556 796.642 150.38C795.778 149.192 795.346 147.614 795.346 145.646C795.346 143.666 795.778 142.088 796.642 140.912C797.506 139.724 798.808 139.13 800.548 139.13C802.288 139.13 803.59 139.724 804.454 140.912C805.318 142.088 805.75 143.666 805.75 145.646C805.75 147.614 805.318 149.192 804.454 150.38C803.59 151.556 802.288 152.144 800.548 152.144Z" fill="black"/>
<path d="M811.122 142.604C810.726 143.372 810.528 144.386 810.528 145.646C810.528 146.906 810.726 147.92 811.122 148.688C811.518 149.456 812.136 149.84 812.976 149.84C813.816 149.84 814.434 149.456 814.83 148.688C815.226 147.92 815.424 146.906 815.424 145.646C815.424 144.386 815.226 143.372 814.83 142.604C814.434 141.836 813.816 141.452 812.976 141.452C812.136 141.452 811.518 141.836 811.122 142.604ZM812.976 152.144C811.236 152.144 809.934 151.556 809.07 150.38C808.206 149.192 807.774 147.614 807.774 145.646C807.774 143.666 808.206 142.088 809.07 140.912C809.934 139.724 811.236 139.13 812.976 139.13C814.716 139.13 816.018 139.724 816.882 140.912C817.746 142.088 818.178 143.666 818.178 145.646C818.178 147.614 817.746 149.192 816.882 150.38C816.018 151.556 814.716 152.144 812.976 152.144Z" fill="black"/>
<path d="M829.537 141.596C829.069 141.596 828.697 141.71 828.421 141.938C828.157 142.154 828.025 142.448 828.025 142.82C828.025 143.18 828.188 143.468 828.511 143.684C828.847 143.9 829.609 144.158 830.797 144.458C831.997 144.746 832.927 145.184 833.587 145.772C834.247 146.36 834.577 147.218 834.577 148.346C834.577 149.474 834.151 150.392 833.299 151.1C832.459 151.796 831.349 152.144 829.969 152.144C827.977 152.144 826.183 151.406 824.587 149.93L826.261 147.878C827.617 149.066 828.871 149.66 830.023 149.66C830.539 149.66 830.941 149.552 831.229 149.336C831.529 149.108 831.679 148.808 831.679 148.436C831.679 148.052 831.523 147.752 831.211 147.536C830.899 147.308 830.281 147.08 829.357 146.852C827.893 146.504 826.819 146.054 826.135 145.502C825.463 144.938 825.127 144.062 825.127 142.874C825.127 141.674 825.553 140.75 826.405 140.102C827.269 139.454 828.343 139.13 829.627 139.13C830.467 139.13 831.307 139.274 832.147 139.562C832.987 139.85 833.719 140.258 834.343 140.786L832.921 142.838C831.829 142.01 830.701 141.596 829.537 141.596Z" fill="black"/>
<path d="M842.819 147.536V142.316H845.537V152H842.819V150.722C842.147 151.67 841.277 152.144 840.209 152.144C839.153 152.144 838.265 151.814 837.545 151.154C836.825 150.482 836.465 149.492 836.465 148.184V142.316H839.183V147.59C839.183 149.078 839.729 149.822 840.821 149.822C841.361 149.822 841.829 149.63 842.225 149.246C842.621 148.85 842.819 148.28 842.819 147.536Z" fill="black"/>
<path d="M852.731 149.75C853.631 149.75 854.441 149.3 855.161 148.4L856.763 150.2C855.515 151.496 854.165 152.144 852.713 152.144C851.261 152.144 850.031 151.688 849.023 150.776C848.027 149.852 847.529 148.652 847.529 147.176C847.529 145.688 848.033 144.482 849.041 143.558C850.061 142.622 851.267 142.154 852.659 142.154C853.355 142.154 854.057 142.298 854.765 142.586C855.485 142.874 856.115 143.3 856.655 143.864L855.251 145.7C854.939 145.328 854.555 145.04 854.099 144.836C853.655 144.632 853.211 144.53 852.767 144.53C852.059 144.53 851.447 144.764 850.931 145.232C850.427 145.688 850.175 146.33 850.175 147.158C850.175 147.974 850.427 148.61 850.931 149.066C851.447 149.522 852.047 149.75 852.731 149.75Z" fill="black"/>
<path d="M863.207 149.75C864.107 149.75 864.917 149.3 865.637 148.4L867.239 150.2C865.991 151.496 864.641 152.144 863.189 152.144C861.737 152.144 860.507 151.688 859.499 150.776C858.503 149.852 858.005 148.652 858.005 147.176C858.005 145.688 858.509 144.482 859.517 143.558C860.537 142.622 861.743 142.154 863.135 142.154C863.831 142.154 864.533 142.298 865.241 142.586C865.961 142.874 866.591 143.3 867.131 143.864L865.727 145.7C865.415 145.328 865.031 145.04 864.575 144.836C864.131 144.632 863.687 144.53 863.243 144.53C862.535 144.53 861.923 144.764 861.407 145.232C860.903 145.688 860.651 146.33 860.651 147.158C860.651 147.974 860.903 148.61 861.407 149.066C861.923 149.522 862.523 149.75 863.207 149.75Z" fill="black"/>
<path d="M877.428 150.596C876.336 151.628 875.052 152.144 873.576 152.144C872.112 152.144 870.9 151.694 869.94 150.794C868.98 149.882 868.5 148.664 868.5 147.14C868.5 145.616 868.986 144.404 869.958 143.504C870.942 142.604 872.1 142.154 873.432 142.154C874.764 142.154 875.892 142.556 876.816 143.36C877.752 144.164 878.22 145.268 878.22 146.672V148.112H871.164C871.248 148.64 871.524 149.072 871.992 149.408C872.46 149.744 872.988 149.912 873.576 149.912C874.524 149.912 875.304 149.594 875.916 148.958L877.428 150.596ZM875.484 146.186C875.424 145.61 875.208 145.166 874.836 144.854C874.464 144.542 874.008 144.386 873.468 144.386C872.94 144.386 872.454 144.548 872.01 144.872C871.566 145.196 871.308 145.634 871.236 146.186H875.484Z" fill="black"/>
<path d="M887.457 148.994C887.457 149.942 887.103 150.704 886.395 151.28C885.699 151.856 884.811 152.144 883.731 152.144C883.011 152.144 882.261 152.018 881.481 151.766C880.701 151.502 879.999 151.118 879.375 150.614L880.563 148.922C881.571 149.702 882.645 150.092 883.785 150.092C884.133 150.092 884.409 150.026 884.613 149.894C884.817 149.75 884.919 149.564 884.919 149.336C884.919 149.108 884.775 148.898 884.487 148.706C884.211 148.514 883.803 148.334 883.263 148.166C882.735 147.998 882.327 147.854 882.039 147.734C881.763 147.614 881.445 147.44 881.085 147.212C880.353 146.756 879.987 146.084 879.987 145.196C879.987 144.296 880.347 143.564 881.067 143C881.787 142.436 882.717 142.154 883.857 142.154C884.997 142.154 886.137 142.538 887.277 143.306L886.269 145.106C885.429 144.53 884.589 144.242 883.749 144.242C882.921 144.242 882.507 144.47 882.507 144.926C882.507 145.178 882.639 145.376 882.903 145.52C883.167 145.664 883.605 145.832 884.217 146.024C884.829 146.216 885.261 146.366 885.513 146.474C885.777 146.57 886.089 146.726 886.449 146.942C887.121 147.35 887.457 148.034 887.457 148.994Z" fill="black"/>
<path d="M896.808 148.994C896.808 149.942 896.454 150.704 895.746 151.28C895.05 151.856 894.162 152.144 893.082 152.144C892.362 152.144 891.612 152.018 890.832 151.766C890.052 151.502 889.35 151.118 888.726 150.614L889.914 148.922C890.922 149.702 891.996 150.092 893.136 150.092C893.484 150.092 893.76 150.026 893.964 149.894C894.168 149.75 894.27 149.564 894.27 149.336C894.27 149.108 894.126 148.898 893.838 148.706C893.562 148.514 893.154 148.334 892.614 148.166C892.086 147.998 891.678 147.854 891.39 147.734C891.114 147.614 890.796 147.44 890.436 147.212C889.704 146.756 889.338 146.084 889.338 145.196C889.338 144.296 889.698 143.564 890.418 143C891.138 142.436 892.068 142.154 893.208 142.154C894.348 142.154 895.488 142.538 896.628 143.306L895.62 145.106C894.78 144.53 893.94 144.242 893.1 144.242C892.272 144.242 891.858 144.47 891.858 144.926C891.858 145.178 891.99 145.376 892.254 145.52C892.518 145.664 892.956 145.832 893.568 146.024C894.18 146.216 894.612 146.366 894.864 146.474C895.128 146.57 895.44 146.726 895.8 146.942C896.472 147.35 896.808 148.034 896.808 148.994Z" fill="black"/>
<path d="M907.936 141.596C907.468 141.596 907.096 141.71 906.82 141.938C906.556 142.154 906.424 142.448 906.424 142.82C906.424 143.18 906.586 143.468 906.91 143.684C907.246 143.9 908.008 144.158 909.196 144.458C910.396 144.746 911.326 145.184 911.986 145.772C912.646 146.36 912.976 147.218 912.976 148.346C912.976 149.474 912.55 150.392 911.698 151.1C910.858 151.796 909.748 152.144 908.368 152.144C906.376 152.144 904.582 151.406 902.986 149.93L904.66 147.878C906.016 149.066 907.27 149.66 908.422 149.66C908.938 149.66 909.34 149.552 909.628 149.336C909.928 149.108 910.078 148.808 910.078 148.436C910.078 148.052 909.922 147.752 909.61 147.536C909.298 147.308 908.68 147.08 907.756 146.852C906.292 146.504 905.218 146.054 904.534 145.502C903.862 144.938 903.526 144.062 903.526 142.874C903.526 141.674 903.952 140.75 904.804 140.102C905.668 139.454 906.742 139.13 908.026 139.13C908.866 139.13 909.706 139.274 910.546 139.562C911.386 139.85 912.118 140.258 912.742 140.786L911.32 142.838C910.228 142.01 909.1 141.596 907.936 141.596Z" fill="black"/>
<path d="M918.07 144.26V148.598C918.07 148.97 918.166 149.264 918.358 149.48C918.55 149.684 918.778 149.786 919.042 149.786C919.546 149.786 919.972 149.558 920.32 149.102L921.328 150.992C920.488 151.76 919.6 152.144 918.664 152.144C917.74 152.144 916.954 151.838 916.306 151.226C915.67 150.614 915.352 149.78 915.352 148.724V144.26H914.218V142.316H915.352V139.418H918.07V142.316H920.41V144.26H918.07Z" fill="black"/>
<path d="M924.831 147.158C924.831 147.95 925.053 148.598 925.497 149.102C925.953 149.594 926.529 149.84 927.225 149.84C927.933 149.84 928.509 149.594 928.953 149.102C929.409 148.598 929.637 147.95 929.637 147.158C929.637 146.366 929.409 145.718 928.953 145.214C928.509 144.71 927.933 144.458 927.225 144.458C926.529 144.458 925.953 144.71 925.497 145.214C925.053 145.718 924.831 146.366 924.831 147.158ZM932.355 147.158C932.355 148.562 931.869 149.744 930.897 150.704C929.925 151.664 928.701 152.144 927.225 152.144C925.761 152.144 924.543 151.664 923.571 150.704C922.599 149.744 922.113 148.562 922.113 147.158C922.113 145.754 922.599 144.572 923.571 143.612C924.543 142.64 925.761 142.154 927.225 142.154C928.701 142.154 929.925 142.64 930.897 143.612C931.869 144.572 932.355 145.754 932.355 147.158Z" fill="black"/>
<path d="M939.454 144.692C938.65 144.692 938.05 144.98 937.654 145.556C937.258 146.12 937.06 146.87 937.06 147.806V152H934.36V142.316H937.06V143.594C937.408 143.198 937.84 142.862 938.356 142.586C938.884 142.31 939.418 142.166 939.958 142.154L939.976 144.692H939.454Z" fill="black"/>
<path d="M944.46 152H941.76V142.316H944.46V152ZM941.976 141.092C941.676 140.78 941.526 140.402 941.526 139.958C941.526 139.514 941.676 139.142 941.976 138.842C942.288 138.53 942.666 138.374 943.11 138.374C943.554 138.374 943.926 138.53 944.226 138.842C944.538 139.142 944.694 139.514 944.694 139.958C944.694 140.402 944.538 140.78 944.226 141.092C943.926 141.392 943.554 141.542 943.11 141.542C942.666 141.542 942.288 141.392 941.976 141.092Z" fill="black"/>
<path d="M955.404 150.596C954.312 151.628 953.028 152.144 951.552 152.144C950.088 152.144 948.876 151.694 947.916 150.794C946.956 149.882 946.476 148.664 946.476 147.14C946.476 145.616 946.962 144.404 947.934 143.504C948.918 142.604 950.076 142.154 951.408 142.154C952.74 142.154 953.868 142.556 954.792 143.36C955.728 144.164 956.196 145.268 956.196 146.672V148.112H949.14C949.224 148.64 949.5 149.072 949.968 149.408C950.436 149.744 950.964 149.912 951.552 149.912C952.5 149.912 953.28 149.594 953.892 148.958L955.404 150.596ZM953.46 146.186C953.4 145.61 953.184 145.166 952.812 144.854C952.44 144.542 951.984 144.386 951.444 144.386C950.916 144.386 950.43 144.548 949.986 144.872C949.542 145.196 949.284 145.634 949.212 146.186H953.46Z" fill="black"/>
<path d="M965.433 148.994C965.433 149.942 965.079 150.704 964.371 151.28C963.675 151.856 962.787 152.144 961.707 152.144C960.987 152.144 960.237 152.018 959.457 151.766C958.677 151.502 957.975 151.118 957.351 150.614L958.539 148.922C959.547 149.702 960.621 150.092 961.761 150.092C962.109 150.092 962.385 150.026 962.589 149.894C962.793 149.75 962.895 149.564 962.895 149.336C962.895 149.108 962.751 148.898 962.463 148.706C962.187 148.514 961.779 148.334 961.239 148.166C960.711 147.998 960.303 147.854 960.015 147.734C959.739 147.614 959.421 147.44 959.061 147.212C958.329 146.756 957.963 146.084 957.963 145.196C957.963 144.296 958.323 143.564 959.043 143C959.763 142.436 960.693 142.154 961.833 142.154C962.973 142.154 964.113 142.538 965.253 143.306L964.245 145.106C963.405 144.53 962.565 144.242 961.725 144.242C960.897 144.242 960.483 144.47 960.483 144.926C960.483 145.178 960.615 145.376 960.879 145.52C961.143 145.664 961.581 145.832 962.193 146.024C962.805 146.216 963.237 146.366 963.489 146.474C963.753 146.57 964.065 146.726 964.425 146.942C965.097 147.35 965.433 148.034 965.433 148.994Z" fill="black"/>
<path d="M1030.56 136.418H1035.65V149H1032.95V138.812H1030.56V136.418Z" fill="black"/>
<path d="M1046.37 136.418V138.848H1041.4V140.954C1041.77 140.846 1042.2 140.792 1042.68 140.792C1043.89 140.792 1044.93 141.158 1045.81 141.89C1046.69 142.622 1047.12 143.612 1047.12 144.86C1047.12 146.096 1046.67 147.122 1045.76 147.938C1044.86 148.742 1043.74 149.144 1042.41 149.144C1040.7 149.144 1039.28 148.514 1038.14 147.254L1039.62 145.202C1039.73 145.31 1039.87 145.442 1040.05 145.598C1040.23 145.754 1040.56 145.964 1041.04 146.228C1041.52 146.48 1042 146.606 1042.48 146.606C1042.96 146.606 1043.39 146.462 1043.76 146.174C1044.13 145.886 1044.32 145.46 1044.32 144.896C1044.32 144.332 1044.11 143.9 1043.7 143.6C1043.31 143.288 1042.79 143.132 1042.16 143.132C1041.52 143.132 1040.78 143.36 1039.94 143.816L1038.77 142.556V136.418H1046.37Z" fill="black"/>
<path d="M1052.34 139.604C1051.94 140.372 1051.74 141.386 1051.74 142.646C1051.74 143.906 1051.94 144.92 1052.34 145.688C1052.73 146.456 1053.35 146.84 1054.19 146.84C1055.03 146.84 1055.65 146.456 1056.05 145.688C1056.44 144.92 1056.64 143.906 1056.64 142.646C1056.64 141.386 1056.44 140.372 1056.05 139.604C1055.65 138.836 1055.03 138.452 1054.19 138.452C1053.35 138.452 1052.73 138.836 1052.34 139.604ZM1054.19 149.144C1052.45 149.144 1051.15 148.556 1050.29 147.38C1049.42 146.192 1048.99 144.614 1048.99 142.646C1048.99 140.666 1049.42 139.088 1050.29 137.912C1051.15 136.724 1052.45 136.13 1054.19 136.13C1055.93 136.13 1057.23 136.724 1058.1 137.912C1058.96 139.088 1059.39 140.666 1059.39 142.646C1059.39 144.614 1058.96 146.192 1058.1 147.38C1057.23 148.556 1055.93 149.144 1054.19 149.144Z" fill="black"/>
<path d="M1064.77 139.604C1064.37 140.372 1064.17 141.386 1064.17 142.646C1064.17 143.906 1064.37 144.92 1064.77 145.688C1065.16 146.456 1065.78 146.84 1066.62 146.84C1067.46 146.84 1068.08 146.456 1068.47 145.688C1068.87 144.92 1069.07 143.906 1069.07 142.646C1069.07 141.386 1068.87 140.372 1068.47 139.604C1068.08 138.836 1067.46 138.452 1066.62 138.452C1065.78 138.452 1065.16 138.836 1064.77 139.604ZM1066.62 149.144C1064.88 149.144 1063.58 148.556 1062.71 147.38C1061.85 146.192 1061.42 144.614 1061.42 142.646C1061.42 140.666 1061.85 139.088 1062.71 137.912C1063.58 136.724 1064.88 136.13 1066.62 136.13C1068.36 136.13 1069.66 136.724 1070.53 137.912C1071.39 139.088 1071.82 140.666 1071.82 142.646C1071.82 144.614 1071.39 146.192 1070.53 147.38C1069.66 148.556 1068.36 149.144 1066.62 149.144Z" fill="black"/>
<path d="M1086.94 136.418H1089.75V149H1086.94V144.05H1081.94V149H1079.13V136.418H1081.94V141.674H1086.94V136.418Z" fill="black"/>
<path d="M1100.8 149H1098.26V147.83C1097.56 148.706 1096.7 149.144 1095.67 149.144C1094.65 149.144 1093.79 148.85 1093.09 148.262C1092.4 147.662 1092.05 146.87 1092.05 145.886C1092.05 144.89 1092.41 144.146 1093.13 143.654C1093.85 143.162 1094.83 142.916 1096.08 142.916H1098.1V142.862C1098.1 141.83 1097.55 141.314 1096.46 141.314C1095.99 141.314 1095.49 141.41 1094.97 141.602C1094.45 141.782 1094.01 142.01 1093.65 142.286L1092.45 140.54C1093.72 139.616 1095.17 139.154 1096.8 139.154C1097.98 139.154 1098.94 139.448 1099.68 140.036C1100.43 140.624 1100.8 141.554 1100.8 142.826V149ZM1098.08 145.31V144.842H1096.39C1095.31 144.842 1094.77 145.178 1094.77 145.85C1094.77 146.198 1094.9 146.468 1095.15 146.66C1095.41 146.84 1095.78 146.93 1096.26 146.93C1096.74 146.93 1097.16 146.786 1097.52 146.498C1097.89 146.198 1098.08 145.802 1098.08 145.31Z" fill="black"/>
<path d="M1108.89 139.154C1110.02 139.154 1111.02 139.628 1111.9 140.576C1112.79 141.512 1113.23 142.694 1113.23 144.122C1113.23 145.55 1112.79 146.744 1111.9 147.704C1111.02 148.664 1109.99 149.144 1108.8 149.144C1107.63 149.144 1106.68 148.67 1105.96 147.722V152.492H1103.26V139.316H1105.96V140.396C1106.79 139.568 1107.77 139.154 1108.89 139.154ZM1105.92 144.176C1105.92 144.956 1106.14 145.598 1106.57 146.102C1107.02 146.594 1107.55 146.84 1108.17 146.84C1108.8 146.84 1109.34 146.594 1109.81 146.102C1110.28 145.598 1110.51 144.956 1110.51 144.176C1110.51 143.396 1110.29 142.742 1109.83 142.214C1109.37 141.686 1108.83 141.422 1108.19 141.422C1107.56 141.422 1107.02 141.686 1106.57 142.214C1106.14 142.73 1105.92 143.384 1105.92 144.176Z" fill="black"/>
<path d="M1120.88 139.154C1122.01 139.154 1123.01 139.628 1123.89 140.576C1124.78 141.512 1125.22 142.694 1125.22 144.122C1125.22 145.55 1124.78 146.744 1123.89 147.704C1123.01 148.664 1121.98 149.144 1120.79 149.144C1119.62 149.144 1118.67 148.67 1117.95 147.722V152.492H1115.25V139.316H1117.95V140.396C1118.78 139.568 1119.75 139.154 1120.88 139.154ZM1117.91 144.176C1117.91 144.956 1118.13 145.598 1118.56 146.102C1119 146.594 1119.54 146.84 1120.16 146.84C1120.79 146.84 1121.33 146.594 1121.8 146.102C1122.27 145.598 1122.5 144.956 1122.5 144.176C1122.5 143.396 1122.27 142.742 1121.82 142.214C1121.36 141.686 1120.82 141.422 1120.18 141.422C1119.54 141.422 1119 141.686 1118.56 142.214C1118.13 142.73 1117.91 143.384 1117.91 144.176Z" fill="black"/>
<path d="M1128.72 152.816C1127.77 152.816 1126.88 152.432 1126.04 151.664L1127.26 149.666C1127.72 150.11 1128.18 150.332 1128.66 150.332C1128.92 150.332 1129.13 150.206 1129.31 149.954C1129.49 149.714 1129.58 149.456 1129.58 149.18C1129.58 148.904 1128.33 145.616 1125.84 139.316H1128.72L1131.08 145.346L1133.43 139.316H1136.31L1131.81 150.728C1131.55 151.388 1131.14 151.898 1130.57 152.258C1130.02 152.63 1129.4 152.816 1128.72 152.816Z" fill="black"/>
<path d="M1148.45 146.516C1149.83 146.516 1150.96 145.97 1151.84 144.878L1153.64 146.732C1152.21 148.34 1150.52 149.144 1148.58 149.144C1146.65 149.144 1145.05 148.532 1143.79 147.308C1142.54 146.084 1141.92 144.542 1141.92 142.682C1141.92 140.81 1142.56 139.25 1143.83 138.002C1145.11 136.754 1146.68 136.13 1148.53 136.13C1150.59 136.13 1152.32 136.916 1153.71 138.488L1151.96 140.468C1151.08 139.364 1149.97 138.812 1148.65 138.812C1147.6 138.812 1146.69 139.16 1145.93 139.856C1145.19 140.54 1144.82 141.47 1144.82 142.646C1144.82 143.81 1145.17 144.746 1145.88 145.454C1146.59 146.162 1147.45 146.516 1148.45 146.516Z" fill="black"/>
<path d="M1158.29 149H1155.59V135.644H1158.29V149Z" fill="black"/>
<path d="M1163.55 149H1160.85V139.316H1163.55V149ZM1161.06 138.092C1160.76 137.78 1160.61 137.402 1160.61 136.958C1160.61 136.514 1160.76 136.142 1161.06 135.842C1161.37 135.53 1161.75 135.374 1162.2 135.374C1162.64 135.374 1163.01 135.53 1163.31 135.842C1163.62 136.142 1163.78 136.514 1163.78 136.958C1163.78 137.402 1163.62 137.78 1163.31 138.092C1163.01 138.392 1162.64 138.542 1162.2 138.542C1161.75 138.542 1161.37 138.392 1161.06 138.092Z" fill="black"/>
<path d="M1174.49 147.596C1173.4 148.628 1172.11 149.144 1170.64 149.144C1169.17 149.144 1167.96 148.694 1167 147.794C1166.04 146.882 1165.56 145.664 1165.56 144.14C1165.56 142.616 1166.05 141.404 1167.02 140.504C1168 139.604 1169.16 139.154 1170.49 139.154C1171.83 139.154 1172.95 139.556 1173.88 140.36C1174.81 141.164 1175.28 142.268 1175.28 143.672V145.112H1168.23C1168.31 145.64 1168.59 146.072 1169.05 146.408C1169.52 146.744 1170.05 146.912 1170.64 146.912C1171.59 146.912 1172.37 146.594 1172.98 145.958L1174.49 147.596ZM1172.55 143.186C1172.49 142.61 1172.27 142.166 1171.9 141.854C1171.53 141.542 1171.07 141.386 1170.53 141.386C1170 141.386 1169.52 141.548 1169.07 141.872C1168.63 142.196 1168.37 142.634 1168.3 143.186H1172.55Z" fill="black"/>
<path d="M1179.93 143.6V149H1177.23V139.316H1179.93V140.396C1180.75 139.568 1181.66 139.154 1182.68 139.154C1183.7 139.154 1184.56 139.514 1185.24 140.234C1185.94 140.954 1186.28 141.914 1186.28 143.114V149H1183.58V143.528C1183.58 142.04 1183.04 141.296 1181.95 141.296C1181.41 141.296 1180.93 141.494 1180.52 141.89C1180.13 142.274 1179.93 142.844 1179.93 143.6Z" fill="black"/>
<path d="M1191.81 141.26V145.598C1191.81 145.97 1191.9 146.264 1192.09 146.48C1192.29 146.684 1192.51 146.786 1192.78 146.786C1193.28 146.786 1193.71 146.558 1194.06 146.102L1195.06 147.992C1194.22 148.76 1193.34 149.144 1192.4 149.144C1191.48 149.144 1190.69 148.838 1190.04 148.226C1189.41 147.614 1189.09 146.78 1189.09 145.724V141.26H1187.95V139.316H1189.09V136.418H1191.81V139.316H1194.15V141.26H1191.81Z" fill="black"/>
<path d="M1203.8 145.994C1203.8 146.942 1203.45 147.704 1202.74 148.28C1202.04 148.856 1201.16 149.144 1200.08 149.144C1199.36 149.144 1198.61 149.018 1197.83 148.766C1197.05 148.502 1196.34 148.118 1195.72 147.614L1196.91 145.922C1197.92 146.702 1198.99 147.092 1200.13 147.092C1200.48 147.092 1200.75 147.026 1200.96 146.894C1201.16 146.75 1201.26 146.564 1201.26 146.336C1201.26 146.108 1201.12 145.898 1200.83 145.706C1200.56 145.514 1200.15 145.334 1199.61 145.166C1199.08 144.998 1198.67 144.854 1198.38 144.734C1198.11 144.614 1197.79 144.44 1197.43 144.212C1196.7 143.756 1196.33 143.084 1196.33 142.196C1196.33 141.296 1196.69 140.564 1197.41 140C1198.13 139.436 1199.06 139.154 1200.2 139.154C1201.34 139.154 1202.48 139.538 1203.62 140.306L1202.61 142.106C1201.77 141.53 1200.93 141.242 1200.09 141.242C1199.27 141.242 1198.85 141.47 1198.85 141.926C1198.85 142.178 1198.98 142.376 1199.25 142.52C1199.51 142.664 1199.95 142.832 1200.56 143.024C1201.17 143.216 1201.61 143.366 1201.86 143.474C1202.12 143.57 1202.43 143.726 1202.79 143.942C1203.47 144.35 1203.8 145.034 1203.8 145.994Z" fill="black"/>
</svg>
