<svg width="28" height="24" viewBox="0 0 28 24" fill="none" xmlns="http://www.w3.org/2000/svg">
<path fill-rule="evenodd" clip-rule="evenodd" d="M0 2C0 1.46957 0.210714 0.96086 0.585786 0.585787C0.960859 0.210714 1.46957 0 2 0H26C26.5304 0 27.0391 0.210714 27.4142 0.585787C27.7893 0.96086 28 1.46957 28 2C28 2.53043 27.7893 3.03914 27.4142 3.41421C27.0391 3.78929 26.5304 4 26 4H2C1.46957 4 0.960859 3.78929 0.585786 3.41421C0.210714 3.03914 0 2.53043 0 2ZM0 12C0 11.4696 0.210714 10.9609 0.585786 10.5858C0.960859 10.2107 1.46957 10 2 10H26C26.5304 10 27.0391 10.2107 27.4142 10.5858C27.7893 10.9609 28 11.4696 28 12C28 12.5304 27.7893 13.0391 27.4142 13.4142C27.0391 13.7893 26.5304 14 26 14H2C1.46957 14 0.960859 13.7893 0.585786 13.4142C0.210714 13.0391 0 12.5304 0 12ZM12 22C12 21.4696 12.2107 20.9609 12.5858 20.5858C12.9609 20.2107 13.4696 20 14 20H26C26.5304 20 27.0391 20.2107 27.4142 20.5858C27.7893 20.9609 28 21.4696 28 22C28 22.5304 27.7893 23.0391 27.4142 23.4142C27.0391 23.7893 26.5304 24 26 24H14C13.4696 24 12.9609 23.7893 12.5858 23.4142C12.2107 23.0391 12 22.5304 12 22Z" fill="white"/>
</svg>
