<svg width="40" height="40" viewBox="0 0 40 40" fill="none" xmlns="http://www.w3.org/2000/svg">
<path fill-rule="evenodd" clip-rule="evenodd" d="M32.5 35C32.5 35 35 35 35 32.5C35 30 32.5 22.5 20 22.5C7.5 22.5 5 30 5 32.5C5 35 7.5 35 7.5 35H32.5ZM7.5125 32.64V32.635V32.64ZM7.555 32.5H32.445C32.4567 32.4986 32.4684 32.497 32.48 32.495L32.5 32.49C32.4975 31.875 32.115 30.025 30.42 28.33C28.79 26.7 25.7225 25 20 25C14.275 25 11.21 26.7 9.58 28.33C7.885 30.025 7.505 31.875 7.5 32.49C7.5183 32.4935 7.53663 32.4969 7.555 32.5ZM32.49 32.64V32.635V32.64ZM20 17.5C21.3261 17.5 22.5979 16.9732 23.5355 16.0355C24.4732 15.0979 25 13.8261 25 12.5C25 11.1739 24.4732 9.90215 23.5355 8.96447C22.5979 8.02678 21.3261 7.5 20 7.5C18.6739 7.5 17.4021 8.02678 16.4645 8.96447C15.5268 9.90215 15 11.1739 15 12.5C15 13.8261 15.5268 15.0979 16.4645 16.0355C17.4021 16.9732 18.6739 17.5 20 17.5ZM27.5 12.5C27.5 14.4891 26.7098 16.3968 25.3033 17.8033C23.8968 19.2098 21.9891 20 20 20C18.0109 20 16.1032 19.2098 14.6967 17.8033C13.2902 16.3968 12.5 14.4891 12.5 12.5C12.5 10.5109 13.2902 8.60322 14.6967 7.1967C16.1032 5.79018 18.0109 5 20 5C21.9891 5 23.8968 5.79018 25.3033 7.1967C26.7098 8.60322 27.5 10.5109 27.5 12.5Z" fill="#FF6934"/>
</svg>
