<svg width="40" height="40" viewBox="0 0 40 40" fill="none" xmlns="http://www.w3.org/2000/svg">
<path d="M22.5 37.5H17.5C16.837 37.5 16.2011 37.2366 15.7322 36.7678C15.2634 36.2989 15 35.663 15 35V26.25C14.337 26.25 13.7011 25.9866 13.2322 25.5178C12.7634 25.0489 12.5 24.413 12.5 23.75V16.25C12.5 15.2554 12.8951 14.3016 13.5983 13.5983C14.3016 12.8951 15.2554 12.5 16.25 12.5H23.75C24.7446 12.5 25.6984 12.8951 26.4017 13.5983C27.1049 14.3016 27.5 15.2554 27.5 16.25V23.75C27.5 24.413 27.2366 25.0489 26.7678 25.5178C26.2989 25.9866 25.663 26.25 25 26.25V35C25 35.663 24.7366 36.2989 24.2678 36.7678C23.7989 37.2366 23.163 37.5 22.5 37.5ZM16.25 15C16.083 14.989 15.9155 15.0137 15.7589 15.0726C15.6022 15.1315 15.4599 15.2232 15.3416 15.3416C15.2232 15.4599 15.1315 15.6022 15.0726 15.7589C15.0137 15.9155 14.989 16.083 15 16.25V23.75H17.5V35H22.5V23.75H25V16.25C25.011 16.083 24.9863 15.9155 24.9274 15.7589C24.8685 15.6022 24.7768 15.4599 24.6584 15.3416C24.5401 15.2232 24.3978 15.1315 24.2411 15.0726C24.0845 15.0137 23.917 14.989 23.75 15H16.25Z" fill="#FF6934"/>
<path d="M20 11.25C19.0111 11.25 18.0444 10.9568 17.2222 10.4074C16.3999 9.85794 15.759 9.07705 15.3806 8.16342C15.0022 7.24979 14.9031 6.24446 15.0961 5.27455C15.289 4.30465 15.7652 3.41373 16.4645 2.71447C17.1637 2.01521 18.0546 1.539 19.0246 1.34608C19.9945 1.15315 20.9998 1.25217 21.9134 1.6306C22.827 2.00904 23.6079 2.64991 24.1574 3.47215C24.7068 4.2944 25 5.2611 25 6.25C25 7.57609 24.4732 8.84785 23.5355 9.78554C22.5979 10.7232 21.3261 11.25 20 11.25ZM20 3.75C19.5055 3.75 19.0222 3.89662 18.6111 4.17133C18.2 4.44603 17.8795 4.83648 17.6903 5.29329C17.5011 5.75011 17.4516 6.25278 17.548 6.73773C17.6445 7.22268 17.8826 7.66814 18.2322 8.01777C18.5819 8.3674 19.0273 8.6055 19.5123 8.70197C19.9972 8.79843 20.4999 8.74892 20.9567 8.5597C21.4135 8.37048 21.804 8.05005 22.0787 7.63893C22.3534 7.2278 22.5 6.74446 22.5 6.25C22.5 5.58696 22.2366 4.95108 21.7678 4.48224C21.2989 4.01339 20.663 3.75 20 3.75Z" fill="#FF6934"/>
</svg>
