<svg width="80" height="80" viewBox="0 0 80 80" fill="none" xmlns="http://www.w3.org/2000/svg">
<path d="M39.9998 6.66675C21.6198 6.66675 6.6665 21.6201 6.6665 40.0001C6.6665 58.3801 21.6198 73.3334 39.9998 73.3334C58.3798 73.3334 73.3332 58.3801 73.3332 40.0001C73.3332 21.6201 58.3798 6.66675 39.9998 6.66675ZM39.9998 66.6668C25.2965 66.6668 13.3332 54.7034 13.3332 40.0001C13.3332 25.2967 25.2965 13.3334 39.9998 13.3334C54.7032 13.3334 66.6665 25.2967 66.6665 40.0001C66.6665 54.7034 54.7032 66.6668 39.9998 66.6668Z" fill="white"/>
<path d="M43.3332 23.3333H36.6665V43.3333H56.6665V36.6666H43.3332V23.3333Z" fill="white"/>
</svg>
