<svg width="80" height="80" viewBox="0 0 80 80" fill="none" xmlns="http://www.w3.org/2000/svg">
<path d="M72.2721 49.4221L62.2183 42.8439L66.0893 35.7474C67.0229 33.9754 67.512 32.0031 67.5146 30.0002V18.7502C67.5224 15.5869 66.6062 12.4902 64.8786 9.84041C63.151 7.19057 60.6871 5.10293 57.7896 3.83384C54.8921 2.56475 51.687 2.16946 48.5679 2.6965C45.4489 3.22355 42.5516 4.64999 40.2319 6.80066L43.6301 10.4689C45.2374 8.9828 47.2434 7.99797 49.4023 7.6352C51.5611 7.27242 53.7789 7.54747 55.7837 8.42661C57.7885 9.30576 59.4932 10.7508 60.6888 12.5846C61.8844 14.4183 62.5189 16.5611 62.5146 18.7502V30.0002C62.5141 31.1665 62.2347 32.3157 61.6997 33.3521L55.6191 44.5002L69.5344 53.6055C70.453 54.2066 71.2068 55.0278 71.7272 55.9944C72.2477 56.9609 72.5183 58.0423 72.5146 59.14V67.5002H61.2646V72.5002H77.5146V59.1399C77.5196 57.2115 77.0427 55.3125 76.1271 53.6154C75.2116 51.9182 73.8864 50.4768 72.2721 49.4221Z" fill="white"/>
<path d="M49.772 54.4221L39.7184 47.8439L43.5892 40.7474C44.5229 38.9754 45.012 37.0031 45.0145 35.0002V23.7502C45.0113 19.438 43.2978 15.3033 40.2498 12.2529C37.2018 9.2026 33.0684 7.48583 28.7562 7.47925C19.8005 7.47925 12.5145 14.7785 12.5145 23.7502V35.0002C12.505 37.0022 12.9888 38.9757 13.9231 40.7463L17.815 47.8813L7.81984 54.4221C6.20736 55.4751 4.88337 56.9142 3.96801 58.6086C3.05265 60.3031 2.5749 62.1993 2.57812 64.1252L2.5 77.5002H55.0145V64.1399C55.0196 62.2115 54.5426 60.3125 53.6271 58.6154C52.7115 56.9182 51.3864 55.4768 49.772 54.4221ZM50.0145 72.5002H7.52906L7.5775 64.1399C7.57372 63.0421 7.84437 61.9608 8.36483 60.9942C8.8853 60.0276 9.63908 59.2065 10.5577 58.6053L24.4142 49.5383L18.3125 38.3521C17.7835 37.3142 17.51 36.1651 17.5145 35.0002V23.7502C17.5145 20.7665 18.6998 17.905 20.8096 15.7952C22.9194 13.6854 25.7808 12.5002 28.7645 12.5002C31.7482 12.5002 34.6097 13.6854 36.7195 15.7952C38.8293 17.905 40.0145 20.7665 40.0145 23.7502V35.0002C40.014 36.1665 39.7347 37.3157 39.1997 38.3521L33.1191 49.5002L47.0344 58.6055C47.9529 59.2066 48.7067 60.0278 49.2272 60.9944C49.7476 61.9609 50.0183 63.0423 50.0145 64.14V72.5002Z" fill="white"/>
</svg>
