<svg width="25" height="25" viewBox="0 0 25 25" fill="none" xmlns="http://www.w3.org/2000/svg">
<path d="M22.0703 1.95312H20.8984V0H18.9453V1.95312H6.05469V0H4.10156V1.95312H2.92969C1.31426 1.95312 0 3.26738 0 4.88281V22.0703C0 23.6857 1.31426 25 2.92969 25H22.0703C23.6857 25 25 23.6857 25 22.0703V4.88281C25 3.26738 23.6857 1.95312 22.0703 1.95312ZM23.0469 22.0703C23.0469 22.6088 22.6088 23.0469 22.0703 23.0469H2.92969C2.39121 23.0469 1.95312 22.6088 1.95312 22.0703V9.17969H23.0469V22.0703ZM23.0469 7.22656H1.95312V4.88281C1.95312 4.34434 2.39121 3.90625 2.92969 3.90625H4.10156V5.85938H6.05469V3.90625H18.9453V5.85938H20.8984V3.90625H22.0703C22.6088 3.90625 23.0469 4.34434 23.0469 4.88281V7.22656Z" fill="#878787"/>
</svg>
