<svg width="85" height="80" viewBox="0 0 85 80" fill="none" xmlns="http://www.w3.org/2000/svg">
<g clip-path="url(#clip0)">
<path fill-rule="evenodd" clip-rule="evenodd" d="M42.3384 13.7402L38.5756 10.0552C29.7434 1.40524 13.5482 4.39024 7.70203 15.2652C4.95736 20.3802 4.3381 27.7652 9.34988 37.1902C14.178 46.2652 24.2225 57.1352 42.3384 68.9752C60.4543 57.1352 70.4936 46.2652 75.3269 37.1902C80.3387 27.7602 79.7247 20.3802 76.9748 15.2652C71.1286 4.39024 54.9334 1.40024 46.1012 10.0502L42.3384 13.7402ZM42.3384 75.0002C-38.1282 24.3402 17.5629 -15.1998 41.4148 5.71524C41.7296 5.99024 42.0393 6.27524 42.3384 6.57024C42.6345 6.27551 42.9426 5.99196 43.262 5.72024C67.1087 -15.2098 122.805 24.3352 42.3384 75.0002Z" fill="black"/>
</g>
<defs>
<clipPath id="clip0">
<rect width="83.9669" height="80" fill="white" transform="translate(0.355469)"/>
</clipPath>
</defs>
</svg>
