<svg width="85" height="80" viewBox="0 0 85 80" fill="none" xmlns="http://www.w3.org/2000/svg">
<path d="M30.5539 49.0366L42.2708 59.9999L53.9912 49.0366C54.7138 48.3744 55.2887 47.5801 55.6814 46.7012C56.0741 45.8223 56.2765 44.8768 56.2765 43.9216C56.2765 42.9664 56.0741 42.0209 55.6814 41.142C55.2887 40.2631 54.7138 39.4688 53.9912 38.8066C52.5343 37.4366 50.5698 36.6685 48.5228 36.6685C46.4759 36.6685 44.5113 37.4366 43.0545 38.8066L42.2708 39.5366L41.4871 38.8066C40.0309 37.4368 38.0669 36.6688 36.0205 36.6688C33.9741 36.6688 32.0101 37.4368 30.5539 38.8066C29.8313 39.4688 29.2564 40.2631 28.8637 41.142C28.471 42.0209 28.2686 42.9664 28.2686 43.9216C28.2686 44.8768 28.471 45.8223 28.8637 46.7012C29.2564 47.5801 29.8313 48.3744 30.5539 49.0366Z" fill="black"/>
<path d="M66.7719 13.3334H59.7747V6.66675H52.7774V13.3334H31.7857V6.66675H24.7884V13.3334H17.7912C13.9322 13.3334 10.7939 16.3234 10.7939 20.0001V66.6668C10.7939 70.3434 13.9322 73.3334 17.7912 73.3334H66.7719C70.6309 73.3334 73.7692 70.3434 73.7692 66.6668V20.0001C73.7692 16.3234 70.6309 13.3334 66.7719 13.3334ZM66.7789 66.6668H17.7912V26.6667H66.7719L66.7789 66.6668Z" fill="black"/>
</svg>
