<svg width="85" height="80" viewBox="0 0 85 80" fill="none" xmlns="http://www.w3.org/2000/svg">
<path d="M68.2897 27.5001H52.5459V15.0001C52.8102 12.5999 52.0631 10.198 50.4687 8.32261C48.8743 6.44726 46.5634 5.25213 44.0442 5.0001C43.3818 4.9251 42.7124 4.9251 42.05 5.0001H37.9304C37.0533 5.023 36.209 5.32263 35.5299 5.852C34.8508 6.38136 34.3753 7.11052 34.1781 7.9251V8.2251L31.5541 24.0751L22.2653 37.5001H5.31445V72.5001H55.1698C74.6921 72.5001 78.7855 61.6251 78.7855 52.5001V37.5001C79.0499 35.0999 78.3027 32.698 76.7084 30.8226C75.114 28.9473 72.8031 27.7521 70.2839 27.5001C69.6215 27.4251 68.9521 27.4251 68.2897 27.5001ZM21.0583 67.5001H10.5624V42.5001H21.0583V67.5001ZM73.5376 52.5001C73.5376 62.7251 67.7124 67.5001 55.1698 67.5001H26.3062V40.7501L36.8021 25.9251L38.7176 12.5001L39.0849 10.0001H42.05C45.8285 10.0001 47.2979 11.4001 47.2979 15.0001V32.5001H68.2897C72.0682 32.5001 73.5376 33.9001 73.5376 37.5001V52.5001Z" fill="black"/>
</svg>
