<svg width="85" height="80" viewBox="0 0 85 80" fill="none" xmlns="http://www.w3.org/2000/svg">
<path d="M76.3926 49.4221L65.8403 42.8439L69.9032 35.7474C70.8831 33.9754 71.3965 32.0031 71.3992 30.0002V18.7502C71.4073 15.5869 70.4457 12.4902 68.6325 9.84041C66.8192 7.19057 64.2332 5.10293 61.1919 3.83384C58.1507 2.56475 54.7867 2.16946 51.513 2.6965C48.2393 3.22355 45.1984 4.64999 42.7637 6.80066L46.3303 10.4689C48.0173 8.9828 50.1229 7.99797 52.3887 7.6352C54.6546 7.27242 56.9824 7.54747 59.0866 8.42661C61.1908 9.30576 62.98 10.7508 64.2349 12.5846C65.4898 14.4183 66.1558 16.5611 66.1513 18.7502V30.0002C66.1507 31.1665 65.8575 32.3157 65.296 33.3521L58.9139 44.5002L73.5192 53.6055C74.4833 54.2066 75.2744 55.0278 75.8207 55.9944C76.367 56.9609 76.6511 58.0423 76.6471 59.14V67.5002H64.8393V72.5002H81.8951V59.1399C81.9003 57.2115 81.3998 55.3125 80.4388 53.6154C79.4778 51.9182 78.087 50.4768 76.3926 49.4221Z" fill="black"/>
<path d="M52.7772 54.4221L42.2251 47.8439L46.2878 40.7474C47.2678 38.9754 47.7811 37.0031 47.7838 35.0002V23.7502C47.7804 19.438 45.9819 15.3033 42.7828 12.2529C39.5837 9.2026 35.2453 7.48583 30.7193 7.47925C21.3195 7.47925 13.6723 14.7785 13.6723 23.7502V35.0002C13.6622 37.0022 14.17 38.9757 15.1507 40.7463L19.2356 47.8813L8.74477 54.4221C7.05233 55.4751 5.66268 56.9142 4.70193 58.6086C3.74118 60.3031 3.23975 62.1993 3.24313 64.1252L3.16113 77.5002H58.2797V64.1399C58.285 62.2115 57.7844 60.3125 56.8234 58.6154C55.8625 56.9182 54.4716 55.4768 52.7772 54.4221ZM53.0318 72.5002H8.43957L8.49041 64.1399C8.48644 63.0421 8.77051 61.9608 9.31678 60.9942C9.86305 60.0276 10.6542 59.2065 11.6183 58.6053L26.162 49.5383L19.7577 38.3521C19.2025 37.3142 18.9154 36.1651 18.9202 35.0002V23.7502C18.9202 20.7665 20.1642 17.905 22.3786 15.7952C24.593 13.6854 27.5964 12.5002 30.728 12.5002C33.8597 12.5002 36.863 13.6854 39.0774 15.7952C41.2919 17.905 42.5359 20.7665 42.5359 23.7502V35.0002C42.5354 36.1665 42.2421 37.3157 41.6806 38.3521L35.2985 49.5002L49.9038 58.6055C50.8679 59.2066 51.6591 60.0278 52.2053 60.9944C52.7516 61.9609 53.0357 63.0423 53.0318 64.14V72.5002Z" fill="black"/>
</svg>
